<svg id="Capa_1" enable-background="new 0 0 512 512" height="512" viewBox="0 0 512 512" width="512" xmlns="http://www.w3.org/2000/svg"><g><g><path d="m89.182 291.66v24.966c0 10.827 6.865 20.464 17.098 24.001l3.28 1.134c6.441 2.226 13.156-2.557 13.156-9.372v-43.772z" fill="#5e54ac"/></g><g><path d="m107.812 289.969v42.42c0 3.06-1.36 5.703-3.435 7.493.62.272 1.255.521 1.903.745l3.28 1.134c6.441 2.226 13.156-2.557 13.156-9.372v-43.772z" fill="#524798"/></g><g><path d="m178.054 126.059v70.657h-4.818c-9.066 0-16.955 6.2-19.099 15.008l-18.277 75.094c-1.638 6.73-7.666 11.466-14.592 11.466h-32.084v-58.798c0-15.075 3.369-29.959 9.861-43.564l16.244-34.041c4.862-10.19 12.377-18.883 21.756-25.169 10.362-6.945 22.554-10.652 35.028-10.652h5.981z" fill="#dddaec"/></g><g><path d="m155.779 179.259c-9.066 0-16.955 6.2-19.099 15.008l-18.277 75.094c-1.638 6.73-7.666 11.466-14.592 11.466h-14.627v17.456h32.085c6.926 0 12.954-4.737 14.592-11.466l18.277-75.094c2.144-8.808 10.034-15.008 19.099-15.008h4.818v-17.456z" fill="#d0cee7"/></g><g><path d="m302.716 126.059v70.657h4.818c9.066 0 16.955 6.2 19.099 15.008l18.277 75.094c1.638 6.73 7.666 11.466 14.592 11.466h17.48c8.066 0 14.604-6.539 14.604-14.604v-44.194c0-15.075-3.369-29.959-9.861-43.564l-16.244-34.041c-4.862-10.19-12.377-18.883-21.756-25.169-10.362-6.945-22.554-10.652-35.028-10.652h-5.981z" fill="#dddaec"/></g><g><path d="m381.725 195.922-16.244-34.041c-4.862-10.19-12.377-18.883-21.756-25.169-10.362-6.945-22.554-10.652-35.028-10.652h-5.981v2.205c6.562 1.782 12.83 4.62 18.54 8.447 9.379 6.286 16.894 14.979 21.756 25.169l16.244 34.041c6.492 13.605 9.861 28.489 9.861 43.564v44.194c0 7.235-5.267 13.226-12.173 14.386.834.144 1.689.219 2.558.219h17.48c8.066 0 14.604-6.539 14.604-14.604v-44.194c.001-15.076-3.369-29.96-9.861-43.565z" fill="#d0cee7"/></g><g><path d="m175.764 99.624c-28.86 1.837-26.408-6.29-26.193-30.913.394-14.659 15.843-12.866 26.193-12.696z" fill="#dddaec"/></g><g><path d="m160.635 56.432v22.915c0 5.711-4.773 10.314-10.475 10.003l-.089-.005c1.654 8.575 7.337 11.447 25.693 10.278v-43.607c-4.625-.076-10.266-.472-15.129.416z" fill="#d0cee7"/></g><g><path d="m305.006 99.624c28.86 1.837 26.408-6.29 26.193-30.913-.394-14.659-15.843-12.866-26.193-12.696z" fill="#dddaec"/></g><g><path d="m331.2 68.712c-.207-7.683-4.551-10.843-10.127-12.09.1.678.17 1.388.191 2.154.186 21.34 2.037 30.284-16.257 31.095v9.754c28.859 1.836 26.407-6.291 26.193-30.913z" fill="#d0cee7"/></g><g><path d="m451.128 504.64c2.71 0 3.989-3.361 1.957-5.155-56.677-50.063-131.134-80.458-212.7-80.458s-156.024 30.395-212.7 80.458c-2.031 1.794-.753 5.155 1.957 5.155z" fill="#b1e4f9"/></g><g><path d="m453.086 499.485c-56.677-50.063-131.134-80.458-212.7-80.458-16.915 0-33.518 1.326-49.726 3.845 61.951 9.627 118.051 36.932 162.975 76.613 2.031 1.794.752 5.155-1.958 5.155h99.452c2.709 0 3.988-3.361 1.957-5.155z" fill="#90d8f9"/></g><g><path d="m322.172 152.003c0-14.329-11.616-25.944-25.944-25.944h-112.063c-14.329 0-25.944 11.616-25.944 25.944v314.367h64.039l10.226-141.804c.299-4.142 3.746-7.35 7.899-7.35 4.153 0 7.6 3.208 7.899 7.35l10.226 141.804h64.039z" fill="#f9f6f9"/></g><g><g><path d="m322.172 152.003c0-14.329-11.616-25.944-25.944-25.944h-18.643c10.894 3.077 18.881 13.084 18.881 24.963l.378 314.366h-38.404l.071.981h64.039z" fill="#dddaec"/></g></g><g><path d="m299.402 146.038-21.124 8.282c-24.359 9.551-51.427 9.551-75.786 0l-21.124-8.282c-5.205-2.041-8.63-7.062-8.63-12.653v-58.378c0-37.36 30.287-67.647 67.647-67.647 37.36 0 67.647 30.287 67.647 67.647v58.378c0 5.591-3.424 10.612-8.63 12.653z" fill="#dddaec"/></g><g><path d="m240.385 7.36c-3.123 0-6.19.23-9.2.639 33.006 4.491 58.447 32.77 58.447 67.008v58.378c0 5.591-3.424 10.612-8.63 12.653l-21.124 8.282c-9.272 3.635-18.936 5.883-28.693 6.75 15.879 1.412 32.005-.835 47.093-6.75l21.124-8.282c5.205-2.041 8.63-7.062 8.63-12.653v-58.378c0-37.36-30.286-67.647-67.647-67.647z" fill="#d0cee7"/></g><g><path d="m211.26 480.415h-42.04c-6.075 0-11-4.925-11-11v-8.759c0-15.611 12.655-28.266 28.266-28.266h7.508c15.611 0 28.266 12.655 28.266 28.266v8.759c0 6.075-4.925 11-11 11z" fill="#5e54ac"/></g><g><path d="m311.55 480.415h-42.039c-6.075 0-11-4.925-11-11v-8.759c0-15.611 12.655-28.266 28.266-28.266h7.508c15.611 0 28.266 12.655 28.266 28.266v8.759c-.001 6.075-4.926 11-11.001 11z" fill="#5e54ac"/></g><g><path d="m194.521 432.391h-8.563c-2.421 0-4.769.312-7.007.895 11.926 3.105 20.731 13.945 20.731 26.844v9.491c0 5.962-4.833 10.795-10.795 10.795h22.578c5.962 0 10.795-4.833 10.795-10.795v-9.491c0-15.321-12.419-27.739-27.739-27.739z" fill="#524798"/></g><g><path d="m294.812 432.391h-8.563c-2.421 0-4.769.312-7.007.895 11.926 3.105 20.731 13.945 20.731 26.844v9.491c0 5.962-4.833 10.795-10.795 10.795h22.578c5.962 0 10.795-4.833 10.795-10.795v-9.491c-.001-15.321-12.42-27.739-27.739-27.739z" fill="#524798"/></g><g><path d="m252.433 133.051h-24.096c-16.348 0-29.602-13.253-29.602-29.602v-24.095c0-16.348 13.253-29.602 29.602-29.602h24.096c16.348 0 29.602 13.253 29.602 29.602v24.096c-.001 16.348-13.254 29.601-29.602 29.601z" fill="#5e54ac"/></g><g><path d="m258.936 50.365c.4 1.921.612 3.911.612 5.95v25.2c0 16.043-13.006 29.049-29.049 29.049h-25.2c-2.04 0-4.029-.212-5.95-.612 2.746 13.189 14.433 23.099 28.437 23.099h25.2c16.043 0 29.049-13.006 29.049-29.049v-25.2c-.001-14.004-9.91-25.691-23.099-28.437z" fill="#524798"/></g><g><path d="m195.884 395.437h-33.456c-6.591 0-11.935-5.343-11.935-11.935v-30.779c0-6.591 5.343-11.935 11.935-11.935h33.456c6.591 0 11.935 5.343 11.935 11.935v30.779c0 6.592-5.344 11.935-11.935 11.935z" fill="#dddaec"/></g><g><path d="m318.342 395.437h-33.456c-6.591 0-11.935-5.343-11.935-11.935v-30.779c0-6.591 5.343-11.935 11.935-11.935h33.456c6.591 0 11.935 5.343 11.935 11.935v30.779c0 6.592-5.343 11.935-11.935 11.935z" fill="#dddaec"/></g><g><path d="m196.107 340.789h-4.296v26.928c0 6.468-5.244 11.712-11.712 11.712h-29.606v4.296c0 6.468 5.244 11.712 11.712 11.712h33.901c6.468 0 11.712-5.244 11.712-11.712v-31.224c.001-6.469-5.243-11.712-11.711-11.712z" fill="#d0cee7"/></g><g><path d="m318.565 340.789h-4.296v26.928c0 6.468-5.244 11.712-11.712 11.712h-29.606v4.296c0 6.468 5.244 11.712 11.712 11.712h33.901c6.468 0 11.712-5.244 11.712-11.712v-31.224c.001-6.469-5.242-11.712-11.711-11.712z" fill="#d0cee7"/></g><g><circle cx="271.849" cy="240.608" fill="#5e54ac" r="14.904"/></g><g><circle cx="271.849" cy="283.38" fill="#95d6a4" r="14.904"/></g><g><path d="m276.078 226.322c.397 1.342.618 2.759.618 4.229 0 8.231-6.673 14.904-14.904 14.904-1.47 0-2.887-.221-4.229-.618 1.824 6.17 7.525 10.675 14.286 10.675 8.231 0 14.904-6.673 14.904-14.904 0-6.761-4.505-12.462-10.675-14.286z" fill="#524798"/></g><g><path d="m276.078 269.094c.397 1.342.618 2.759.618 4.229 0 8.231-6.673 14.904-14.904 14.904-1.47 0-2.887-.221-4.229-.618 1.824 6.17 7.525 10.675 14.286 10.675 8.231 0 14.904-6.673 14.904-14.904 0-6.761-4.505-12.462-10.675-14.286z" fill="#78c2a4"/></g><g><circle cx="208.921" cy="283.38" fill="#5e54ac" r="14.904"/></g><g><path d="m213.15 269.094c.397 1.342.618 2.759.618 4.229 0 8.231-6.673 14.904-14.904 14.904-1.47 0-2.887-.221-4.229-.618 1.824 6.17 7.525 10.675 14.286 10.675 8.231 0 14.904-6.673 14.904-14.904 0-6.761-4.505-12.462-10.675-14.286z" fill="#524798"/></g><g><circle cx="208.921" cy="240.608" fill="#e28086" r="14.904"/></g><g><path d="m213.15 226.322c.397 1.342.618 2.759.618 4.229 0 8.231-6.673 14.904-14.904 14.904-1.47 0-2.887-.221-4.229-.618 1.824 6.17 7.525 10.675 14.286 10.675 8.231 0 14.904-6.673 14.904-14.904 0-6.761-4.505-12.462-10.675-14.286z" fill="#dd636e"/></g><g><path d="m482.937 71.05-124.424-46.955v100.454l124.423-46.955c3.018-1.138 3.018-5.406.001-6.544z" fill="#e28086"/></g><g><path d="m483.099 71.111-31.245-11.791-93.34 35.225v30.005l124.585-47.016c2.96-1.118 2.96-5.306 0-6.423z" fill="#dd636e"/></g><g><path d="m255.661 219.695h-30.551c-8.988 0-16.274-7.286-16.274-16.274 0-8.988 7.286-16.274 16.274-16.274h30.551c8.988 0 16.274 7.286 16.274 16.274-.001 8.988-7.287 16.274-16.274 16.274z" fill="#dddaec"/></g><g><path d="m258.06 187.344c.116.785.196 1.582.196 2.399 0 8.988-7.286 16.274-16.274 16.274h-30.551c-.817 0-1.614-.08-2.399-.196 1.163 7.847 7.907 13.874 16.077 13.874h30.551c8.988 0 16.274-7.286 16.274-16.274 0-8.17-6.027-14.914-13.874-16.077z" fill="#d0cee7"/></g><g><path d="m386.108 295.112-8.837 8.639c-7.742 7.569-19.432 9.396-29.115 4.551l-3.104-1.553c-6.094-3.049-7.368-11.195-2.495-15.959l22.081-21.586c4.951-4.84 12.99-4.385 17.363.984l5.16 6.335c4.509 5.537 4.052 13.598-1.053 18.589z" fill="#5e54ac"/></g><g><path d="m387.161 276.524-3.902-4.79c-.652 2.168-1.832 4.204-3.554 5.888l-8.837 8.639c-7.596 7.425-18.986 9.308-28.558 4.803-4.563 4.796-3.241 12.693 2.742 15.686l3.104 1.553c9.683 4.845 21.373 3.017 29.115-4.552l8.837-8.639c5.105-4.991 5.562-13.052 1.053-18.588z" fill="#524798"/></g><g><path d="m227.785 140.411h25.201c20.076 0 36.409-16.333 36.409-36.409v-25.201c0-20.076-16.333-36.409-36.409-36.409h-25.201c-20.076 0-36.409 16.333-36.409 36.409v25.201c0 20.076 16.333 36.409 36.409 36.409zm-21.689-61.61c0-11.959 9.73-21.689 21.689-21.689h25.201c11.96 0 21.689 9.73 21.689 21.689v25.201c0 11.959-9.73 21.689-21.689 21.689h-25.201c-11.96 0-21.689-9.73-21.689-21.689z"/><path d="m485.697 64.225-68.743-25.942c-3.802-1.435-8.05.485-9.485 4.287-1.435 3.804.484 8.05 4.288 9.485l59.006 22.268-104.889 39.582v-79.165l14.133 5.333c3.805 1.437 8.05-.484 9.485-4.287 1.435-3.804-.484-8.05-4.288-9.485l-24.092-9.092c-2.259-.853-5.37-.131-7.358 1.242-1.681 1.163-4.256 3.079-4.256 9.299v104.01c-.553-.394-1.109-.785-1.675-1.164-9.749-6.533-20.849-10.47-32.431-11.57v-11.871c8.262-.378 13.503-2.235 17.312-5.971 6.271-6.151 6.126-15.05 5.925-27.365.292-6.861-.665-14.96-5.807-19.3-6.007-5.683-14.668-6.133-22.277-6.002-10.727-28.322-38.124-48.517-70.16-48.517s-59.432 20.195-70.161 48.518c-7.607-.132-16.271.319-22.278 6.002-5.141 4.34-5.806 8.745-5.806 19.3 0 12.317-.345 21.215 5.925 27.365 3.809 3.736 9.049 5.593 17.312 5.971v11.871c-11.582 1.1-22.682 5.036-32.431 11.57-10.47 7.017-18.873 16.739-24.301 28.115l-16.244 34.041c-6.921 14.503-10.579 30.663-10.579 46.733l-.001 77.14c0 13.956 8.863 26.397 22.052 30.956 6.11 2.695 13.367 3.041 18.95-1.122 4.542-3.235 7.253-8.496 7.253-14.071v-14.217c1.452 1.682 3.502 2.552 5.57 2.552 1.671 0 3.353-.566 4.732-1.726 3.112-2.616 3.513-7.259.897-10.37l-6.388-7.598c3.942-3.022 6.876-7.35 8.122-12.471l7.849-32.262v80.909c-4.678 3.479-7.728 9.031-7.728 15.295v31.225c0 6.264 3.05 11.816 7.728 15.295v25.017c-20.238 5.719-39.984 13.397-58.762 22.904-3.626 1.836-5.078 6.265-3.241 9.891 1.297 2.561 3.886 4.037 6.572 4.037 1.118 0 2.254-.256 3.319-.795 16.693-8.453 34.185-15.398 52.112-20.724v30.27c0 10.011 8.144 18.155 18.155 18.155h42.45c10.01 0 18.155-8.144 18.155-18.155l2.895-43.125c5.246-.129 10.507-.135 15.741-.006l2.895 43.131c0 10.011 8.144 18.155 18.155 18.155h42.45c10.01 0 18.155-8.144 18.155-18.155l-.033-30.287c6.609 1.966 13.149 4.177 19.621 6.583v25.457c0 4.065 3.295 7.36 7.36 7.36s7.36-3.295 7.36-7.36v-19.554c26.866 11.571 52.192 26.896 74.908 45.46h-397.484c8.983-7.349 18.394-14.221 28.088-20.509 3.41-2.212 4.382-6.77 2.169-10.18-2.212-3.411-6.771-4.382-10.18-2.17-13.625 8.838-26.715 18.779-38.906 29.548-3.239 2.861-4.343 7.323-2.812 11.367 1.531 4.048 5.316 6.664 9.642 6.664h421.486c4.325 0 8.11-2.616 9.642-6.664 1.53-4.044.426-8.506-2.812-11.367-27.72-24.485-59.608-44.201-93.74-58.131v-117.835c6.711-.974 13.117-4.023 18.197-8.989l8.837-8.638c4.693-4.329 7.825-10.172 7.694-16.695v-44.194c0-16.07-3.658-32.23-10.579-46.733l-16.244-34.041c-2.175-4.558-4.835-8.844-7.906-12.804v-15.646l121.48-45.843c4.241-1.6 6.982-5.564 6.982-10.097 0-4.534-2.74-8.497-6.982-10.098zm-136.199 87.09v122.398l-.164.16-15.549-63.888c-.814-3.343-2.227-6.429-4.194-9.203l-.059-48.777c0-5.689-1.479-11.179-4.136-16.016 5.009 1.579 9.798 3.867 14.232 6.838 3.633 2.433 6.928 5.3 9.87 8.488zm-85.984 282.106-7.888-109.385c-.573-7.951-7.267-14.181-15.24-14.181s-14.667 6.229-15.24 14.181l-7.889 109.385c-6.13-5.226-14.068-8.391-22.735-8.391h-8.563c-7.595 0-14.628 2.433-20.378 6.549v-28.782h30.526c10.516 0 19.072-8.556 19.072-19.072v-31.225c0-10.516-8.556-19.072-19.072-19.072h-30.527v-31.462l9.748-7.243c3.335-2.477 7.459-3.842 11.614-3.842h1.018c3.086 8.597 11.315 14.763 20.961 14.763 12.276 0 22.264-9.988 22.264-22.264 0-10.134-6.808-18.702-16.089-21.386 9.281-2.684 16.089-11.252 16.089-21.386 0-5.097-1.726-9.796-4.618-13.553h27.636c-2.892 3.757-4.618 8.456-4.618 13.553 0 10.134 6.808 18.702 16.089 21.386-9.281 2.684-16.089 11.252-16.089 21.386 0 12.276 9.988 22.264 22.264 22.264 9.645 0 17.875-6.167 20.961-14.763h1.018c4.154 0 8.279 1.365 11.613 3.842l9.552 7.099.038 31.607h-30.369c-10.516 0-19.072 8.556-19.072 19.072v31.225c0 10.516 8.556 19.072 19.072 19.072h30.45l.035 28.753c-5.742-4.098-12.76-6.519-20.336-6.519h-8.563c-8.667-.001-16.605 3.163-22.734 8.389zm-60.911-222.796c.925 2.884 2.387 5.531 4.273 7.816-9.255.847-16.885 7.381-19.363 16.068h-.571c-6.02 0-12.001 1.635-17.199 4.65l16.121-19.454c4.24-5.116 10.224-8.331 16.739-9.08zm92.303 9.081 16.121 19.454c-5.198-3.015-11.179-4.65-17.199-4.65h-.571c-2.479-8.688-10.109-15.221-19.363-16.068 1.886-2.285 3.348-4.932 4.273-7.816 6.515.748 12.499 3.963 16.739 9.08zm28.011 164.019c0 2.4-1.953 4.352-4.352 4.352h-33.901c-2.4 0-4.352-1.952-4.352-4.352v-31.225c0-2.4 1.953-4.352 4.352-4.352h33.901c2.4 0 4.352 1.952 4.352 4.352zm-29.089-107.564h-.923c-2.345-6.821-7.914-12.152-14.881-14.167 6.483-1.875 11.759-6.618 14.351-12.764h1.453c4.154 0 8.279 1.365 11.614 3.842l9.501 7.06.028 23.334-.75-.558c-5.855-4.351-13.097-6.747-20.393-6.747zm-21.979-43.097c4.16 0 7.544 3.384 7.544 7.544s-3.384 7.544-7.544 7.544-7.544-3.384-7.544-7.544 3.385-7.544 7.544-7.544zm0 42.772c4.16 0 7.544 3.384 7.544 7.544s-3.384 7.544-7.544 7.544-7.544-3.384-7.544-7.544 3.385-7.544 7.544-7.544zm-16.188-63.501h-30.551c-4.915 0-8.914-3.998-8.914-8.914 0-4.915 3.999-8.914 8.914-8.914h30.551c4.915 0 8.914 3.998 8.914 8.914-.001 4.915-4 8.914-8.914 8.914zm-67.796 63.826h-.923c-7.295 0-14.538 2.396-20.393 6.748l-.968.72v-23.313l9.748-7.243c3.335-2.477 7.459-3.842 11.614-3.842h1.453c2.592 6.147 7.868 10.889 14.351 12.764-6.968 2.014-12.537 7.345-14.882 14.166zm21.056-.325c4.16 0 7.544 3.384 7.544 7.544s-3.384 7.544-7.544 7.544-7.544-3.384-7.544-7.544 3.384-7.544 7.544-7.544zm0-27.684c-4.16 0-7.544-3.384-7.544-7.544s3.384-7.544 7.544-7.544 7.544 3.384 7.544 7.544-3.384 7.544-7.544 7.544zm-12.815 99.997c2.4 0 4.352 1.952 4.352 4.352v31.225c0 2.4-1.953 4.352-4.352 4.352h-33.901c-2.4 0-4.352-1.952-4.352-4.352v-31.225c0-2.4 1.953-4.352 4.352-4.352zm126.601-282.936c.261.246 1.133.993 1.133 3.636 0 18.232.314 20.104-1.444 21.828-.607.595-2.31 1.456-7.004 1.739v-17.409c0-3.995-.321-7.915-.926-11.743 3.482.12 6.793.579 8.241 1.949zm-82.322-50.493c33.242 0 60.287 27.044 60.287 60.287v58.377c0 2.581-1.553 4.858-3.957 5.801l-21.124 8.282c-22.703 8.901-47.71 8.901-70.413 0l-21.124-8.282c-2.404-.942-3.957-3.219-3.957-5.801v-58.377c.001-33.243 27.046-60.287 60.288-60.287zm-82.011 75.957c-1.758-1.724-1.46-20.002-1.444-21.828.082-2.642.872-3.39 1.133-3.636 1.449-1.37 4.76-1.829 8.241-1.949-.604 3.828-.926 7.748-.926 11.743v17.411c-4.694-.282-6.397-1.146-7.004-1.741zm-44.091 243.794c-.4.286-1.235.708-2.317.334l-3.282-1.136c-7.263-2.51-12.142-9.36-12.142-17.044v-10.982h18.814v26.744c.001 1.148-.672 1.799-1.073 2.084zm14.426-49.394c-.838 3.442-3.898 5.847-7.441 5.847h-24.724v-51.438c0-13.89 3.162-27.858 9.144-40.395l16.244-34.041c4.291-8.992 10.934-16.678 19.21-22.225 4.278-2.867 8.888-5.096 13.707-6.668-2.578 4.772-3.988 10.181-3.988 15.846v3.803c0 4.065 3.295 7.36 7.36 7.36s7.36-3.295 7.36-7.36v-3.803c0-3.153.784-6.165 2.217-8.824 2.286 4.338 6.072 7.824 10.884 9.711l21.124 8.282c13.084 5.13 26.832 7.695 40.58 7.695s27.496-2.565 40.58-7.695l21.124-8.282c4.671-1.832 8.377-5.167 10.681-9.328 1.316 2.578 2.042 5.465 2.042 8.45l.083 68.747-8.655-10.444c-7.075-8.539-17.233-13.71-28.2-14.471-3.166-9.325-11.999-16.056-22.38-16.056h-30.551c-10.381 0-19.214 6.731-22.38 16.056-10.967.761-21.125 5.932-28.2 14.471l-8.949 10.799v-30.041c0-4.065-3.295-7.36-7.36-7.36s-7.36 3.295-7.36 7.36v10.162c-1.805 2.664-3.109 5.601-3.875 8.749zm86.19 184.543c0 1.894-1.541 3.435-3.435 3.435h-42.45c-1.894 0-3.435-1.541-3.435-3.435v-9.491c0-11.237 9.142-20.378 20.378-20.378h8.563c11.237 0 20.378 9.142 20.378 20.378v9.491zm18.679-57.881 6.249-86.645c.021-.29.266-.518.558-.518s.537.228.558.518l6.249 86.652c-4.53-.092-9.076-.099-13.614-.007zm81.612 57.881c0 1.894-1.541 3.435-3.435 3.435h-42.45c-1.894 0-3.435-1.541-3.435-3.435v-9.491c0-11.237 9.142-20.378 20.378-20.378h8.563c11.185 0 20.288 9.06 20.37 20.226zm14.669-45.625-.03-24.915c4.724-3.475 7.809-9.055 7.809-15.355v-31.225c0-6.333-3.115-11.939-7.881-15.409l-.095-81.614 7.438 30.374c-3.768 3.881-5.518 9.338-4.68 14.698.861 5.51 4.352 10.288 9.338 12.782l3.105 1.553c1.511.756 3.062 1.373 4.635 1.878v113.476c-6.483-2.287-13.032-4.375-19.639-6.243zm42.266-125.507c-5.495 5.371-13.803 6.673-20.675 3.233-2.209-1.01-6.385-2.739-3.748-5.668l14.359-14.037.002-.002 7.72-7.547c2.464-1.842 4.162-1.838 6.511.369l5.161 6.336c2.119 2.602 1.908 6.332-.492 8.677zm2.958-99.397c5.982 12.537 9.144 26.505 9.144 40.395v22.772c-2.97-2.192-6.532-3.526-10.273-3.738-1.913-.105-3.811.09-5.64.54-.16-.078-4.095-1.903-4.095-1.903v-80.834z"/></g></g></svg>