<svg id="Layer_5" enable-background="new 0 0 64 64" height="512" viewBox="0 0 64 64" width="512" xmlns="http://www.w3.org/2000/svg"><path d="m36 49h2v2h-2z"/><path d="m34 55h2v2h-2z"/><path d="m39 52h2v2h-2z"/><path d="m40 58h2v2h-2z"/><path d="m46 55h2v2h-2z"/><path d="m52 57h2v2h-2z"/><path d="m30 58h2v2h-2z"/><path d="m17 19c3.86 0 7-3.14 7-7s-3.14-7-7-7-7 3.14-7 7 3.14 7 7 7zm0-12c2.757 0 5 2.243 5 5s-2.243 5-5 5-5-2.243-5-5 2.243-5 5-5z"/><path d="m15 37h4c1.654 0 3-1.346 3-3v-4c0-1.654-1.346-3-3-3h-4c-1.654 0-3 1.346-3 3v4c0 1.654 1.346 3 3 3zm-1-7c0-.551.449-1 1-1h4c.551 0 1 .449 1 1v4c0 .551-.449 1-1 1h-4c-.551 0-1-.449-1-1z"/><path d="m16 31h2v2h-2z"/><path d="m52 30h11v-18h-8v-5c0-1.654-1.346-3-3-3h-9v-1c0-1.103-.897-2-2-2h-2c-1.103 0-2 .897-2 2v16h-6v-6c0-2.269-1.553-4.225-3.694-4.808-1.554-4.192-5.581-7.192-10.306-7.192s-8.752 3-10.306 7.192c-2.141.583-3.694 2.539-3.694 4.808v10.659c-1.26 1.794-2 3.978-2 6.341v7c0 3.309 2.691 6 6 6h1v13.54c-1.224 1.1-2 2.689-2 4.46v2h10 2 9 1 34v-2.333l-4.448-5.93c-1.284-1.714-3.331-2.737-5.472-2.737h-5.709c-.397 0-.757-.235-.917-.599l-1.007-2.302c-.35-.799-.852-1.495-1.447-2.088v-25.011h6v5c0 1.654 1.346 3 3 3zm9-16v14h-9c-.551 0-1-.449-1-1s.449-1 1-1c1.654 0 3-1.346 3-3v-9zm-20-11v42.614c-.627-.284-1.301-.469-2-.553v-42.061zm-19 52c-1.538 0-2.937.586-4 1.54v-3.922l6-3v5.732c-.627-.222-1.298-.35-2-.35zm2-7.618-6 3v-1.764l6-3zm0-4-6 3v-5.382h6zm-8 3-6-3v-2.382h6zm-6-.764 6 3v1.764l-6-3zm16-2.618h1c2.206 0 4-1.794 4-4v-11h6v17.054c-2.407.263-4.501 1.789-5.454 4.059l-.954 2.273c-.156.373-.518.614-.922.614h-3.67zm0-2v-13h3v11c0 1.103-.897 2-2 2zm11-15h-2v-5h2zm-8-13v6h-3.521c1.574-1.903 2.521-4.343 2.521-7 0-.441-.033-.873-.084-1.301.663.555 1.084 1.387 1.084 2.301zm-12-10c4.962 0 9 4.038 9 9s-4.038 9-9 9-9-4.038-9-9 4.038-9 9-9zm-10.916 7.699c-.051.428-.084.86-.084 1.301 0 2.867 1.112 5.474 2.916 7.434-1.463.42-2.783 1.137-3.916 2.068v-8.502c0-.914.421-1.746 1.084-2.301zm4.728 10.389c1.765 1.205 3.895 1.912 6.188 1.912 2.346 0 4.517-.744 6.305-2h9.695v5h-9v13h-14v-13h-2v9h-5v-5c0-4.562 3.335-8.326 7.812-8.912zm-3.812 19.912c-2.206 0-4-1.794-4-4h5v4zm3 8.618 6 3v3.922c-1.063-.954-2.462-1.54-4-1.54-.702 0-1.373.128-2 .35zm-2 11.382c0-2.206 1.794-4 4-4s4 1.794 4 4zm10 0c0-2.206 1.794-4 4-4s4 1.794 4 4zm28.371-7h5.709c1.516 0 2.963.724 3.873 1.937l3.797 5.063h-31.75c0-1.771-.776-3.36-2-4.46v-2.54h3.67c1.211 0 2.297-.722 2.767-1.839l.954-2.274c.735-1.754 2.44-2.887 4.342-2.887h.446c1.923 0 3.665 1.139 4.436 2.901l1.007 2.302c.478 1.091 1.557 1.797 2.749 1.797zm-3.371-48h9c.551 0 1 .449 1 1v13.184c-.314-.112-.648-.184-1-.184h-9zm9 16c.551 0 1 .449 1 1s-.449 1-1 1c-.352 0-.686.072-1 .184v-2.184z"/><path d="m45 8h2v2h-2z"/><path d="m45 16h2v2h-2z"/><path d="m45 12h2v2h-2z"/></svg>