<svg height="512" viewBox="0 0 64 64" width="512" xmlns="http://www.w3.org/2000/svg"><g id="Icons"><g><path d="m52 24c0 12.63-5.74 24.59-15.62 32.49l-3.721 3.262c-.377.331-.941.331-1.318 0l-3.721-3.262c-9.87-7.89-15.62-19.85-15.62-32.49 0-11.04 8.96-20 20-20s20 8.96 20 20z" fill="#c80a50"/></g><g><circle cx="32" cy="24" fill="#fab400" r="16"/></g><g><circle cx="32" cy="24" fill="#f0f0f0" r="14"/></g><g><path d="m33.793 17.189 1.169 2.368c.291.59.854.999 1.506 1.094l2.613.38c1.64.238 2.295 2.254 1.108 3.411l-1.891 1.843c-.471.459-.686 1.121-.575 1.77l.446 2.602c.28 1.634-1.435 2.88-2.902 2.108l-2.337-1.229c-.583-.306-1.279-.306-1.861 0l-2.337 1.229c-1.467.771-3.182-.475-2.902-2.108l.446-2.602c.111-.649-.104-1.311-.575-1.77l-1.891-1.843c-1.187-1.157-.532-3.173 1.108-3.411l2.613-.38c.651-.095 1.215-.504 1.506-1.094l1.169-2.368c.734-1.487 2.854-1.487 3.587 0z" fill="#d2d2d2"/></g><g><path d="m33.793 16.189 1.169 2.368c.291.59.854.999 1.506 1.094l2.613.38c1.64.238 2.295 2.254 1.108 3.411l-1.891 1.843c-.471.459-.686 1.121-.575 1.77l.446 2.602c.28 1.634-1.435 2.88-2.902 2.108l-2.337-1.229c-.583-.306-1.279-.306-1.861 0l-2.337 1.229c-1.467.771-3.182-.475-2.902-2.108l.446-2.602c.111-.649-.104-1.311-.575-1.77l-1.891-1.843c-1.187-1.157-.532-3.173 1.108-3.411l2.613-.38c.651-.095 1.215-.504 1.506-1.094l1.169-2.368c.734-1.487 2.854-1.487 3.587 0z" fill="#0a5078"/></g></g></svg>