<svg height="512" viewBox="0 0 42 60" width="512" xmlns="http://www.w3.org/2000/svg"><g id="017---Gas-Station-Pin" fill="none"><path id="Path" d="m21.977 59.447c-.2181094.0001706-.411163-.1410594-.4770396-.3489825s.010626-.4345571.1890396-.5600175l.6-.419-2.178 1.257c-.2285233.1282497-.5172952.0583047-.6618051-.1602995-.14451-.2186041-.095725-.5116937.1118051-.6717005l3.2-2.409-5.461 3.148c-.2295527.1314921-.521805.0614183-.6667704-.1598726-.1449654-.2212908-.0924688-.5172061.1197704-.6751274l3.047-2.248-5.02 2.9c-.2296891.1296297-.5205695.0585592-.6646041-.1623819s-.0916869-.5157667.1196041-.6736181l2.811-2.057-4.524 2.611c-.2300956.1246328-.5173688.0507679-.6588088-.1693958-.1414401-.2201636-.0891975-.5121441.1198088-.6696042l1.517-1.079-2.8 1.62c-.2247363.1292165-.510959.0652384-.6592891-.1473681-.14833011-.2126064-.10956629-.5033193.0892891-.6696319l3.864-3.231-5.937 3.428c-.22744501.1317107-.51803557.064845-.66504038-.1530278-.14700482-.2178727-.10023334-.512366.10704038-.6739722l2.331-1.823-3.515 2.028c-.21554136.1292433-.49352391.0784089-.64937633-.1187507-.15585243-.1971597-.14113674-.4793686.03437633-.6592493l2.37-2.5-3.532 2.039c-.21661269.1233895-.49102367.0683675-.64332306-.1289924s-.1359526-.4767549.03832306-.6550076l.375-.38c-.18285978.000039-.35272156-.0945389-.449-.25-.13738473-.2389169-.05553486-.543953.183-.682l2.813-1.625c.21700592-.1266978.49433335-.0726539.64788685.1262561.1535535.1989101.13562387.4808849-.04188685.6587439l-.217.219 3.3-1.9c.2148145-.122858.4871855-.0700952.640583.1240916.1533976.1941868.1416695.4713733-.027583.6519084l-2.368 2.5 6.711-3.881c.227445-.1317107.5180356-.064845.6650404.1530278.1470048.2178727.1002333.512366-.1070404.6739722l-2.332 1.824 4.764-2.75c.2244518-.1286386.5099659-.0648202.6582866.1471407.1483207.211961.1104625.5020607-.0872866.6688593l-3.861 3.232 7.012-4.048c.2306836-.128482.5215078-.0554404.6641078.1667933s.0878131.5170425-.1251078.6732067l-1.521 1.079 3.326-1.92c.2296891-.1296297.5205695-.0585592.6646041.1623819s.0916869.5157667-.1196041.6736181l-2.81 2.055 4.7-2.711c.2295527-.1314921.521805-.0614183.6667704.1598726.1449654.2212908.0924688.5172061-.1197704.6751274l-3.039 2.245 4.859-2.8c.2230261-.0973382.4837425-.019977.6175826.1832524.13384.2032295.1019324.473303-.0755826.6397476l-3.2 2.409 4.95-2.857c.230817-.1267753.5204005-.0527915.6621232.1691615.1417226.221953.0869993.5157856-.1251232.6718385l-.593.416 1.6-.925c.2296891-.1296297.5205695-.0585592.6646041.1623819s.0916869.5157667-.1196041.6736181l-1.483 1.084 2.518-1.454c.2229237-.1277986.5064223-.0658196.6556784.1433455.1492561.2091652.11567.4974096-.0776784.6666545l-2.722 2.371 4.011-2.316c.210704-.121866.4785513-.0742927.6344017.1126784.1558503.186971.1544141.4590066-.0034017.6443216l-1.54 1.81 1.933-1.115c.2374252-.1242009.5305531-.0391619.6646466.1928199.1340935.2319817.0614797.5284321-.1646466.6721801l-4.428 2.568c-.210704.121866-.4785513.0742927-.6344017-.1126784-.1558503-.186971-.1544141-.4590066.0034017-.6443216l1.54-1.811-5.988 3.457c-.2225362.1254221-.5038286.0629326-.6523283-.1449156-.1484997-.2078483-.1164484-.49421.0743283-.6640844l2.72-2.373-6.08 3.511c-.2296891.1296297-.5205695.0585592-.6646041-.1623819s-.0916869-.5157667.1196041-.6736181l1.477-1.08-3.425 1.978c-.0758978.0441549-.1621931.067282-.25.067z" fill="#0c70dc"/><path id="Path" d="m20.754 55.437c-.2047267.0000625-.3888078-.1246865-.4646134-.3148615-.0758055-.190175-.0280182-.4073491.1206134-.5481385l2.142-2.033-2.863 1.652c-.2296891.1296297-.5205695.0585592-.6646041-.1623819s-.0916869-.5157667.1196041-.6736181l1.377-1.01-1.659.958c-.2292016.1303039-.5201978.0602449-.6649792-.1600976s-.0935911-.5152436.1169792-.6739024l5.4-4-6.063 3.5c-.2341443.133112-.5316521.0568382-.672871-.1725078-.1412189-.2293459-.075396-.5293391.148871-.6784922l.736-.483-.92.53c-.2334461.1352991-.5321345.0609722-.6749447-.1679561-.1428102-.2289282-.0782242-.5298733.1459447-.6800439l5.859-3.95-6.333 3.657c-.2321092.1290838-.5246372.0541763-.6661393-.170578-.1415021-.2247542-.0825963-.5209195.1341393-.674422l9.935-6.788-10.643 6.146c-.2334461.1352991-.5321345.0609722-.6749447-.1679561-.1428102-.2289282-.0782242-.5298733.1459447-.6800439l11.619-7.817-12.349 7.126c-.2354379.13455-.5352149.0569022-.6757281-.1750261-.1405133-.2319283-.0705395-.5335888.1577281-.6799739l6.753-4.306-7.076 4.088c-.1521951.0936036-.3427662.0989017-.4999268.0138987-.1571607-.0850031-.2570345-.2473934-.262-.426-.0049655-.1786067.0857317-.3462951.2379268-.4398987l12.347-8.06-12.941 7.468c-.2343611.1288923-.5286543.0505227-.6678755-.1778537-.1392213-.2283764-.0740613-.5258734.1478755-.6751463l11.646-7.484-12.108 6.992c-.2363779.1427656-.54373437.0668778-.68649997-.1695-.1427656-.2363779-.06687788-.5437344.16949997-.6865l8.266-5.2-8.563 4.943c-.23436107.1288923-.5286543.0505227-.66787555-.1778537-.13922124-.2283764-.07406124-.5258734.14787555-.6751463l13.269-8.5-13.717 7.918c-.15326694.0918173-.34387535.094893-.5000249.0080685-.15614954-.0868244-.25411739-.2503583-.257-.429s.08975796-.3452512.2430249-.4370685l6.3-3.915-6.475 3.738c-.23637787.1427656-.54373437.0668778-.68649997-.1695-.1427656-.2363779-.06687788-.5437344.16949997-.6865l12.03-7.609-12.363 7.137c-.23693016.1419372-.54406281.0649301-.68599999-.172-.14193717-.2369302-.06493016-.5440628.17199999-.686l7.087-4.4-7.219 4.167c-.2372063.1413849-.5441151.0637063-.6855-.1735s-.0637063-.5441151.1735-.6855l5.425-3.352-5.518 3.185c-.23520866.125628-.52761522.0445694-.66457305-.1842276-.13695782-.228797-.07026696-.5248112.15157305-.6727724l5.986-3.7-6.069 3.5c-.23543794.13455-.53521485.0569022-.67572813-.1750261s-.0705395-.5335888.15772813-.6799739l13.543-8.583-13.77 7.95c-.23620749.133071-.53543293.0536509-.67455995-.1790411-.13912701-.2326919-.06746125-.5338687.16155995-.6789589l4.884-3.007-4.895 2.825c-.23486629.1223119-.52436539.0402957-.66017777-.1870309-.13581237-.2273266-.07083392-.5211193.14817777-.6699691l5.971-3.692-5.955 3.437c-.23436107.1288923-.5286543.0505227-.66787555-.1778537-.13922124-.2283764-.07406124-.5258734.14787555-.6751463l15.9-10.212-16.08 9.28c-.23541159.1379583-.53795774.061708-.67986369-.1713453-.14190596-.2330532-.07076502-.5368414.15986369-.6826547l15.276-9.8-15.36 8.867c-.23541159.1379583-.53795774.061708-.67986369-.1713453-.14190596-.2330532-.07076502-.5368414.15986369-.6826547l14.339-9.187-14.288 8.246c-.23541159.1379583-.53795774.061708-.67986369-.1713453-.14190596-.2330532-.07076502-.5368414.15986369-.6826547l13.651-8.758-13.439 7.758c-.23415271.123715-.52415635.0433988-.66130449-.1831476-.13714814-.2265465-.0738659-.5207372.14430449-.6708524l10.231-6.49-9.877 5.7c-.23693016.1419372-.54406282.0649302-.686-.172s-.06493016-.5440628.172-.686l2.87-1.78-2.338 1.35c-.23470287.1405531-.53878699.0663884-.6824238-.1664401-.14363681-.2328284-.07348967-.5378644.1574238-.6845599l13.234-8.7-12.526 7.231c-.2341443.133112-.53165209.0568382-.67287099-.1725078-.1412189-.2293459-.07539606-.5293391.14887099-.6784922l10.021-6.536-9.009 5.2c-.23554945.1441463-.54335368.0700494-.6875-.1655s-.07004945-.5433537.1655-.6875l6.346-4.1-5.236 3.021c-.23186034.1330617-.52737097.0602043-.67080661-.1653857-.14343565-.22559-.08404925-.5240996.13480661-.6776143l9.309-6.461-7.363 4.251c-.23296731.1327691-.52919188.0581284-.67142871-.1691822-.14223683-.2273105-.07984054-.5263539.14142871-.6778178l3.184-2.15-1.14.658c-.22805424.12904158-.51704704.0601323-.66233529-.15793143-.14528824-.21806373-.09758263-.5113034.10933529-.67206857l3.639-2.777c-.1744204-.07406109-.29198628-.24035839-.30363509-.4294928-.01164882-.18913441.08462135-.36860191.24863509-.4635072l5.065-2.924c.228242-.1318458.5196375-.06386204.6659708.15537372.1463332.21923576.0973404.51441845-.1119708.67462628l-2.404 1.835 6.73-3.885c.23265-.12885992.5254615-.05304724.6663444.17252517s.0805297.52195667-.1373444.67447483l-3.181 2.147 5.434-3.137c.23158-.12940266.5239091-.05542235.6660571.16856044.142148.2239828.0846277.51999085-.1310571.67443956l-9.307 6.46 12.021-6.945c.2342478-.13088328.5300435-.05352709.6702262.17527691.1401827.22880401.074765.52746697-.1482262.67672309l-6.353 4.115 7.751-4.475c.2352733-.1446986.5433014-.0712733.688.164s.0712733.5433014-.164.688l-10.023 6.535 11.485-6.631c.2347029-.1405531.538787-.06638836.6824238.16644007s.0734897.5378644-.1574238.68455993l-13.233 8.701 14.779-8.53c.2352087-.12562801.5276152-.04456942.664573.18422757.1369579.22879699.070267.52481121-.151573.67277243l-2.89 1.793 3.427-1.978c.2349709-.12921461.5300387-.05006202.6687925.17940502.1387537.22946704.0717837.52753611-.1517925.67559498l-10.221 6.481 11.054-6.378c.2354116-.13795832.5379577-.06170795.6798637.17134529.1419059.23305325.070765.53684142-.1598637.68265471l-13.653 8.756 14.525-8.384c.234023-.12528526.5251579-.04585984.6631351.18091194s.0746978.5218373-.1441351.67208806l-14.348 9.194 15.088-8.711c.2343611-.12889229.5286543-.05052268.6678755.17785371.1392213.22837639.0740613.52587341-.1478755.67514629l-15.274 9.8 15.955-9.209c.2354116-.13795832.5379577-.06170795.6798637.17134529.1419059.23305325.070765.53684142-.1598637.68265471l-15.9 10.209 16.374-9.453c.2352087-.125628.5276152-.0445694.664573.1842276.1369579.228797.070267.5248112-.151573.6727724l-5.976 3.7 6.088-3.514c.2362075-.133071.5354329-.0536509.6745599.1790411.1391271.2326919.0674613.5338687-.1615599.6789589l-4.892 3.014 4.856-2.8c.234481-.1270728.5274228-.0477401.6657366.1802909.1383139.2280309.0733058.5244809-.1477366.6737091l-13.548 8.581 13.665-7.888c.2352087-.125628.5276152-.0445694.664573.1842276.1369579.228797.070267.5248112-.151573.6727724l-5.99 3.7 5.848-3.376c.1534456-.0916386.3441237-.094454.5002079-.0073855.1560842.0870684.2538614.2507929.2565.4295s-.0902623.3452469-.2437079.4368855l-5.412 3.344 5.187-3c.2369302-.1419372.5440628-.0649302.686.172s.0649302.5440628-.172.686l-7.081 4.4 6.874-3.968c.2363779-.1430417.5439582-.0673778.687.169.1430417.2363779.0673779.5439582-.169.687l-12.032 7.61 11.657-6.718c.2352087-.125628.5276152-.0445694.664573.1842276.1369579.228797.070267.5248112-.151573.6727724l-6.3 3.914 5.89-3.4c.2343611-.1288923.5286543-.0505227.6678755.1778537.1392213.2283764.0740613.5258734-.1478755.6751463l-13.261 8.5 12.578-7.268c.2349709-.1292146.5300387-.050062.6687925.179405.1387537.2294671.0717837.5275361-.1517925.675595l-8.273 5.2 7.529-4.346c.2347713-.1336383.5332399-.0566316.6740509.1739091.1408109.2305408.0730402.5312411-.1530509.6790909l-11.649 7.49 10.539-6.084c.2347034-.1364868.5354374-.0607325.6774741.1706544.1420368.2313868.073465.5338394-.1544741.6813456l-12.347 8.062 10.884-6.284c.2361017-.1433179.5436821-.0681017.687.168s.0681017.5436821-.168.687l-6.743 4.3 5.34-3.084c.2329673-.1327691.5291919-.0581284.6714287.1691822.1422368.2273105.0798406.5263539-.1414287.6778178l-11.622 7.82 9.443-5.453c.2328603-.1351428.5309189-.0616362.6742423.1662803.1433233.2279164.080443.5283964-.1422423.6797197l-9.932 6.787 7.365-4.252c.2334461-.1352991.5321345-.0609722.6749447.1679561.1428102.2289282.0782242.5298733-.1459447.6800439l-5.858 3.949 3.456-1.995c.2341443-.133112.5316521-.0568382.672871.1725078.1412189.2293459.075396.5293391-.148871.6784922l-1.8 1.181c.212665.0058496.3983399.1456297.4627707.348384s-.0064939.424076-.1767707.551616l-5.394 4 1.985-1.147c.2299138-.1328235.5235501-.0627731.6687427.1595365s.0912979.5193359-.1227427.6764635l-2.413 1.77c.112641.0269897.2121481.0928557.281.186.1512262.202777.1271846.4865543-.056.661l-3.602 3.419.015.026c.1373847.2389169.0555349.543953-.183.682l-1.532.882c-.0746094.0438673-.1594526.0673199-.246.068z" fill="#2783ec"/><path id="Path" d="m20.734 37.446c-.2187294.0001121-.412143-.1419608-.4774497-.3507133-.0653068-.2087525.0126541-.4357231.1924497-.5602867l5.316-3.682-7.419 4.283c-.2334461.1352991-.5321345.0609722-.6749447-.1679561-.1428102-.2289282-.0782242-.5298733.1459447-.6800439l6.134-4.114-7.632 4.406c-.2328603.1351428-.5309189.0616362-.6742423-.1662803-.1433233-.2279164-.080443-.5283964.1422423-.6797197l9.846-6.718-11.515 6.647c-.2330829.1306613-.5277074.0549657-.6689423-.1718661-.1412349-.2268319-.0791592-.5246238.1409423-.6761339l10.476-7.015-11.766 6.794c-.2361017.1433179-.5436821.0681017-.687-.168-.1433178-.2361017-.0681017-.5436821.168-.687l5.3-3.373-5.923 3.419c-.234481.1270728-.5274228.0477401-.6657366-.1802909-.1383139-.2280309-.0733058-.5244809.1477366-.6737091l5.71-3.631-6.172 3.562c-.233204.1287421-.52639387.0520483-.66668716-.1743946-.1402933-.226443-.07842312-.5231151.14068716-.6746054l12.14-8.023-12.939 7.472c-.2352733.1446986-.5433014.0712733-.688-.164s-.0712733-.5433014.164-.688l11.477-7.5-11.975 6.909c-.15308831.0921745-.34372226.0956757-.50009189.0091846s-.25471867-.2498344-.258-.4285c-.00328132-.1786657.08900358-.3455101.24209189-.4376846l3.261-2.041-3.329 1.922c-.23424781.1308833-.53004345.0535271-.67022619-.1752769-.14018273-.228804-.07476503-.527467.14822619-.6767231l10.86-7.065-11.064 6.388c-.23316989.1223686-.5212849.042918-.65877935-.1816651-.13749446-.224583-.0772371-.5173145.13777935-.6693349l11.157-7.3-11.2 6.465c-.23497088.1292146-.53003872.050062-.66879247-.179405-.13875376-.2294671-.07178369-.5275361.15179247-.675595l4.291-2.707-4.1 2.368c-.23637787.1427656-.54373439.0668779-.6865-.1695s-.06687787-.5437344.1695-.6865l3.668-2.314-3.324 1.919c-.2341443.133112-.53165209.0568382-.67287099-.1725078-.1412189-.2293459-.07539606-.5293391.14887099-.6784922l9.366-6.152-9.008 5.2c-.23424781.1308833-.53004345.0535271-.67022619-.1752769-.14018273-.228804-.07476503-.527467.14822619-.6767231l5.889-3.807-5.246 3.029c-.23069226.103855-.50260746.0190299-.63333227-.1975706-.13072481-.2166006-.07906129-.496715.12033227-.6524294l1.222-.777-.59.34c-.15183788.0950326-.34284117.1018419-.5010608.0178628-.15821962-.0839792-.25961825-.2459883-.266-.425-.00638175-.1790118.08322292-.3478302.2350608-.4428628l7.78-5.3-6.631 3.828c-.23354514.1328438-.53032442.0573638-.6720248-.1709163s-.07765459-.5277351.1450248-.6780837l3.2-2.13-1.861 1.075c-.23229375.1351768-.52989283.0625367-.67378421-.164462-.14389139-.2269988-.08259275-.5271392.13878421-.679538l2.766-1.916-.89.513c-.22791241.1308241-.51820223.0628918-.66439759-.1554793-.14619535-.2183711-.09839715-.512647.10939759-.6735207l2.753-2.121c-.1690413-.07856853-.2803407-.24464847-.2887479-.43086691s.087474-.36165191.2487479-.45513309l4.827-2.788c.228437-.13504779.5225838-.06811251.6700912.15248419s.0969864.51800267-.1150912.67751581l-1.48 1.137 4.847-2.8c.2322938-.13517681.5298928-.06253672.6737842.16446202s.0825928.52713916-.1387842.67953798l-2.771 1.923 4.858-2.8c.2335451-.1328438.5303244-.05736382.6720248.17091629s.0776546.52773513-.1450248.67808371l-3.2 2.132 4.75-2.741c.2318412-.125947.5216461-.05007548.6620287.17332045.1403825.22339593.0830243.51742555-.1310287.67167955l-7.776 5.3 9.547-5.512c.2354379-.13454995.5352149-.05690217.6757281.17502611.1405133.23192829.0705395.53358878-.1577281.67997389l-1.228.772 1.9-1.095c.2347713-.13363828.5332399-.05663158.6740509.17390914.1408109.23054072.0730402.5312411-.1530509.67909086l-5.883 3.8 6.832-3.945c.2347029-.1405531.538787-.06638836.6824238.16644007s.0734897.5378644-.1574238.68455993l-9.369 6.152 10.317-5.956c.2355125-.13195996.5332497-.0531389.6726204.17806525.1393708.23120415.0700423.53129378-.1566204.67793475l-3.682 2.323 4.152-2.4c.2349709-.12921461.5300387-.05006202.6687925.17940502.1387537.22946704.0717837.52753611-.1517925.67559498l-4.284 2.7 4.644-2.68c.2330372-.12386012.5222123-.04527822.6605113.17949071.138299.22476892.0780959.51832119-.1375113.67050929l-11.159 7.306 11.8-6.814c.2347034-.1364868.5354374-.0607325.6774741.1706544.1420368.2313868.073465.5338394-.1544741.6813456l-10.858 7.065 11.317-6.533c.2361735-.1361818.537908-.0580681.6783318.1756081.1404239.2336761.0677709.5367718-.1633318.6813919l-3.267 2.044 3.288-1.9c.2347034-.1364868.5354374-.0607325.6774741.1706544.1420368.2313868.073465.5338394-.1544741.6813456l-11.476 7.507 11.711-6.761c.233204-.1287421.5263939-.0520483.6666872.1743946.1402933.226443.0784231.5231151-.1406872.6746054l-12.143 8.024 12.158-7.019c.2361017-.1433179.5436821-.0681017.687.168s.0681017.5436821-.168.687l-5.706 3.626 5.49-3.169c.2348642-.1312813.531504-.0531604.6712412.1767732.1397372.2299337.0724576.5292187-.1522412.6772268l-5.3 3.375 4.906-2.834c.2334461-.1352991.5321345-.0609722.6749447.1679561.1428102.2289282.0782242.5298733-.1459447.6800439l-10.476 7.015 9.968-5.754c.2321092-.1290838.5246372-.0541763.6661393.170578.1415021.2247542.0825963.5209195-.1341393.674422l-9.847 6.72 9.025-5.21c.2330829-.1306613.5277074-.0549657.6689423.1718661.1412349.2268319.0791592.5246238-.1409423.6761339l-6.138 4.116 5.047-2.913c.2322938-.1351768.5298928-.0625367.6737842.164462.1438914.2269988.0825928.5271392-.1387842.679538l-5.313 3.68 3.684-2.126c.2311923-.1280141.5220815-.054013.6639947.1689178.1419132.2229309.0858401.5178012-.1279947.6730822l-1.9 1.324c.2417131-.0612351.4915976.0649789.5857642.2958633s.0038289.4958587-.2117642.6211367l-10.03 5.791c-.23158.1294027-.5239091.0554223-.6660571-.1685604-.142148-.2239828-.0846277-.5199909.1310571-.6744396l1.723-1.2-3.869 2.233c-.0768687.0455472-.1646513.0693937-.254.069z" fill="#f0f2f5"/><path id="Path" d="m20.151 37.388c-.1962167.0001928-.3744093-.1144012-.4556369-.2930156-.0812275-.1786144-.0504738-.3882298.0786369-.5359844l1.86-2.128-4.24 2.447c-.226507.1291681-.5142486.0625855-.6609917-.1529516-.1467432-.2155372-.103215-.5076567.0999917-.6710484l1.476-1.168-2.587 1.493c-.2308022.1338179-.5260112.0628564-.670779-.1612399s-.0880924-.5223777.128779-.6777601l.4-.286-1.055.608c-.227731.1281621-.5157443.059345-.6609391-.1579231-.1451949-.217268-.0985947-.509699.1069391-.6710769l3.729-2.869-4.873 2.814c-.2299138.1328235-.5235501.0627731-.6687427-.1595365s-.0912979-.5193359.1227427-.6764635l4-2.932-4.8 2.773c-.2319831.1309881-.5259285.0570795-.6683699-.1680527-.1424414-.2251321-.0833463-.52241.1343699-.6759473l2.216-1.522-2.711 1.565c-.2295527.1314921-.52180501.0614183-.6667704-.1598726-.14496539-.2212908-.0924688-.5172061.1197704-.6751274l6.53-4.822-6.149 3.55c-.2325262.1307666-.52675914.0559509-.6685809-.1700024-.14182177-.2259533-.08127436-.5234503.1375809-.6759976l2.055-1.4-1.524.879c-.23158.1294027-.52390906.0554223-.6660571-.1685604-.14214803-.2239828-.08462774-.5199909.1310571-.6744396l2.124-1.478-1.589.917c-.2305507.1302945-.52270695.0582293-.66621925-.1643342-.14351231-.2225634-.08860007-.5184238.12521925-.6746658l1.22-.873-.679.391c-.2180963.1257781-.49569476.0697764-.64796984-.1307191s-.13172419-.4829397.04796984-.6592809l2.808-2.742-2.209 1.275c-.1966939.112934-.44476609.0793258-.60432131-.0818719-.15955523-.1611977-.19062112-.4096011-.07567869-.6051281l.956-1.613c-.2413017.125342-.5385351.0348713-.6690845-.2036533-.13054938-.2385246-.04655067-.5376515.1890845-.6733467l1.632-.943c.1969571-.1145529.4464505-.0814625.6067371.0804717s.1908239.4117529.0742629.6075283l-.956 1.612 4-2.306c.2180963-.1257781.4956948-.0697764.6479698.1307191.1522751.2004955.1317242.4829397-.0479698.6592809l-2.809 2.742 6.119-3.532c.2305507-.1302945.5227069-.0582293.6662193.1643342.1435123.2225634.0886.5184238-.1252193.6746658l-1.225.876 2.972-1.715c.2309506-.1251572.5193699-.0502601.6602447.1714532.1408749.2217132.0861633.5146329-.1252447.6705468l-2.124 1.479 3.01-1.737c.2318412-.125947.5216461-.0500755.6620287.1733204.1403825.223396.0830243.5174256-.1310287.6716796l-2.047 1.393 2.084-1.2c.2295527-.1314921.521805-.0614183.6667704.1598726.1449654.2212908.0924688.5172061-.1197704.6751274l-6.53 4.821 6.082-3.511c.2324067-.1328499.5282158-.0590851.6710333.1673329s.0819688.5251514-.1380333.6776671l-2.222 1.526 1.692-.976c.2296891-.1296297.5205695-.0585592.6646041.1623819s.0916869.5157667-.1196041.6736181l-3.995 2.922 3.452-1.994c.2279124-.1308241.5182022-.0628918.6643976.1554793.1461953.2183711.0983971.512647-.1093976.6735207l-3.727 2.87 3.176-1.834c.2301828-.1290216.5210052-.0569569.6643125.1646141.1433073.2215711.0897614.5163656-.1223125.6733859l-.461.332c.2304099-.0844213.4880301.0108395.6080868.2248537.1200568.2140142.0670629.4835219-.1250868.6361463l-1.477 1.169.919-.53c.2115312-.1216183.4799523-.0727945.6351088.1155214.1551565.188316.1517294.4611197-.0081088.6454786l-1.859 2.128 1.236-.713c.1765621-.1022107.3975144-.0868999.5582914.0386865s.2291291.3362576.1727086.5323135l-.32 1.119c.1866306.0620711.3195348.227791.3395965.4234471.0200618.1956561-.076446.3848989-.2465965.4835529l-.6.345c-.176512.1015306-.3969629.0858744-.5573546-.0395826-.1603916-.125457-.2286782-.335649-.1726454-.5314174l.253-.887-2.77 1.599c-.0754309.0445132-.1614143.0679946-.249.068z" fill="#ec3a48"/><path id="Path" d="m13.828 17.471c-.2057445.0005554-.3908253-.1249785-.4663983-.3163416-.0755729-.1913631-.026208-.409484.1243983-.5496584l2.106-1.972-3.285 1.9c-.2151117.1243892-.4889299.0719324-.6428382-.1231521s-.1411987-.4735922.0298382-.6538479l1.48-1.552-.895.516c-.1935758.1115285-.4376484.081108-.597926-.0745239-.1602777-.1556319-.1978621-.3987045-.092074-.5954761l.468-.868c-.2151346-.0238909-.3904662-.1835004-.4344044-.3954511-.0439382-.2119506.0534959-.4281056.2414044-.5355489l1.128-.65c.1938293-.1130184.4392111-.0830784.6001787.0732303.1609676.1563086.1980997.4007055.0908213.5977697l-.378.7 2.378-1.372c.2150358-.1228992.4876397-.0698481.6408929.1247234.1532532.1945714.1409636.4720174-.0288929.6522766l-1.48 1.553 4.037-2.33c.2206356-.1300292.503851-.072325.6560244.1336626s.1241014.4936554-.0650244.6663374l-2.1 1.971 4.146-2.393c.2130048-.1213721.4825903-.0704054.6365857.1203501.1539953.1907555.1469715.4650266-.0165857.6476499l-2 2.2 1.611-.928c.1895673-.1083111.4274919-.0811001.5877092.0672154.1602173.1483154.2056764.3834367.1122908.5807846l-.557 1.161c.1839848-.0002697.3551505.0941925.453.25.0666188.1149293.0847639.2516448.0504306.3799727-.0343334.1283278-.1183225.2377179-.2334306.3040273l-1.123.647c-.1897681.1088047-.4282329.0816206-.5886437-.0671031-.1604108-.1487238-.2055222-.3844554-.1113563-.5818969l.511-1.068-2.974 1.709c-.2130048.1213721-.4825903.0704054-.6365857-.1203501-.1539953-.1907555-.1469715-.4650266.0165857-.6476499l1.994-2.2-5.143 2.968c-.0754237.0457373-.1617951.0702668-.25.071z" fill="#ec3a48"/><path id="Path" d="m17.174 30.471c-.194134.0003157-.3709029-.1117705-.4534099-.2874996s-.0558363-.3833327.0684099-.5325004l1.011-1.211-3.084 1.781c-.2253151.1304911-.5130605.0662242-.6614447-.1477312-.1483843-.2139555-.1077334-.5059746.0934447-.6712688l.652-.537-.516.3c-.2192049.1250239-.4972153.0671074-.6482603-.1350489-.1510451-.2021563-.1277753-.4851803.0542603-.6599511l.85-.809-.257.147c-.193736.1112232-.4377455.0804371-.5977845-.0754209-.1600391-.1558581-.1972723-.3989673-.0912155-.5955791l.464-.857c-.2140099-.0254909-.3876031-.1852463-.4307435-.3964072s.0538812-.4262033.2407435-.5335928l1.128-.65c.1939916-.1127127.4393106-.0824055.6000388.0741298.1607283.1565353.1975079.4009677.0899612.5978702l-.372.687 2.351-1.359c.2197017-.1368532.5075279-.0834076.6634543.1231949s.128398.4980515-.0634543.6718051l-.851.809 2.1-1.209c.2253151-.1304911.5130605-.0662242.6614447.1477312.1483843.2139555.1077334.5059746-.0934447.6712688l-.647.534.294-.17c.2095622-.1197327.4747426-.0726762.6303137.1118499.1555712.184526.157122.4538447.0036863.6401501l-1.006 1.211.373-.215c.2374252-.1242009.5305531-.0391619.6646466.1928199.1340935.2319817.0614797.5284321-.1646466.6721801l-2.8 1.615c-.0777752.0446902-.1663257.0671738-.256.065z" fill="#d92936"/><g fill="#262626"><path id="Shape" d="m22.632.564c-10.0142918-.5684908-19.05286997 5.96911343-21.648 15.658-2.969 11.058 4.553 21.878 11.065 30.12.9 1.135 2.072 2.916 3.362 4.6-3.981.273-12.239 1.11-12.126 4.186.171 4.625 15.691 4.19 18.172 4.16 3.708-.046 13.787.346 16.57-3.278 3.025-3.939-8.823-4.924-12.005-5.15 7.234-8.063 15.323-18.3 15.708-29.287-.351-10.748-8-20.215-19.098-21.009zm14.53 54.167c1.681 3.353-14.8 3.981-16.619 3.959-4.172-.051-8.7-.209-12.669-1.61-8.229-2.9 3.682-5.111 7.968-5.587 1.0265178 1.4599308 2.3497064 2.6866831 3.883 3.6 2.175 1.02 3.42-1.064 4.771-2.545.321-.352.648-.714.974-1.075 3.267.159 10.277.433 11.692 3.258zm-12.034-4.591c-.657.754-2.451 3.51-3.486 3.828-1.345.413-2.552-1.545-3.448-2.541-3.2441687-3.5701841-6.2382713-7.3598406-8.961-11.342-6.984-10.326-11.66-23.871-.882-33.679 12.979-11.806 31.399-.614 31.919 15.303-.377 10.739-8.395 20.691-15.142 28.431z"/><path id="Shape" d="m18.584 4.934c-7.95 1.257-14.342 8.048-14.308 16.26.048 11.852 9.966 16.841 18.992 15.435v.155c0 .722 1.464.481 1.464-.128v-.314c6.733-1.591 12.622-6.824 12.992-15.536-.1088768-4.7683278-2.2798755-9.2552036-5.9513089-12.29976944-3.6714333-3.04456584-8.482582-4.34769229-13.1886911-3.57223056zm-2.3 30.88c-2.0795017-.725539-3.9765755-1.8941501-5.56-3.425-.024-2.794-.651-6.338 0-9 .776-3.131 6.338-1.889 8.876-1.889 1.72 0 3.07-.254 3.665 1.883.35 1.253 0 3.1 0 4.391v8.749c-2.3492637.3231901-4.7417508.0801014-6.978-.709zm4.673-19.28h-5.957c-.947 0-1.944.316-2.266-.83-.2041372-.9928095-.1990285-2.0172758.015-3.008.274-.464 1.607-.23 2.245-.23h4.016c.953 0 1.942-.321 2.266.83.116.429.256 2.881-.316 3.238zm-1.684.962v2.975c-1.2-.072-2.887-.261-4.552-.262v-2.6c1.508.037 3.052-.061 4.555-.109zm5.456 18.741v-11.273c0-.5.04-1.06.024-1.615.956-.017 1.93.086 2.362 1.067.461 1.045-.147 2.159.67 3.123 1.446 1.7 4.417.665 4.878-1.347.044994-.0720253.0692181-.1550795.07-.24v-7c0-.784-1.472-.59-1.472.1v7c0 .022.012.035.014.055-.1.985-1.138 1.916-2.017 1.038-.3757921-.431143-.5684638-.9919361-.537-1.563.1019345-.8095439-.1266052-1.6260145-.634-2.265-.857-.859-2.242-.733-3.4-.7-.0637425-.5212973-.2958177-1.0075667-.661-1.385-.847-.819-2.145-.783-3.3-.746v-3.02h.009c.011 0 .024-.005.035-.006.1164309.0086907.2334878-.002812.346-.034 1.81-.49 1.615-1.793 1.615-3.371 0-1.29 0-2.329-1.564-2.521-1.4320696-.0851193-2.8679304-.0851193-4.3 0-1.2602517-.0845046-2.5247483-.0845046-3.785 0-1.8.248-1.812 1.527-1.812 3.036 0 1.3-.168 2.674 1.462 2.892.179.024.361.037.543.055v2.748c-1.737.153-3.243.643-3.807 1.888-.6 1.314-.2 3.4-.2 4.781v3.866c-2.29477273-2.8273761-3.54622686-6.3585672-3.544-10 .11-10.068 10-18.132 19.989-14.62 6.487 2.286 10.279 8.34 10.563 15.014-.307 7.197-5.057 13.391-11.544 15.043z"/><path id="Shape" d="m19.77 24.7c-.7002846-.1095026-1.4116375-.1296637-2.117-.06-1.284 0-3.96-.424-4.348 1.311-.0833506.6970416-.0930709 1.4009225-.029 2.1 0 .728-.159 1.625.549 2.083.7296064.2745127 1.5179295.3551367 2.288.234h2.446.1.043c.011 0 .025 0 .036-.006.0488303-.0002112.0975969-.0035514.146-.01.928-.149 1.736-.542 1.837-1.565.077-.772 0-1.589 0-2.365s-.081-1.485-.951-1.722zm-4.4 4.94c-.848-.243-.643-1.322-.643-1.979 0-.478-.238-1.775.024-2.187.16-.254 1.306-.108 1.718-.108.7196833-.0875036 1.4473167-.0875036 2.167 0 .847.244.643 1.32.643 1.979 0 .187.151 2.174-.148 2.3h-1.597c-.7199776.0853511-1.4476722.0826646-2.167-.008z"/></g></g></svg>