<svg height="512" viewBox="0 0 50 60" width="512" xmlns="http://www.w3.org/2000/svg"><g id="Page-1" fill="none" fill-rule="evenodd"><g id="001---Jerry-Can" fill-rule="nonzero"><path id="Shape" d="m42 12h-19c-.6120286.0183671-1.2043714.2204605-1.7.58-.0451606.0308881-.0885614.0642733-.13.1l-9.07 7.42c-.1172162.098964-.2274771.2058836-.33.32-.4972176.5472417-.771865 1.2606115-.77 2v33.58c0 1.6568542 1.3431458 3 3 3h32c1.6568542 0 3-1.3431458 3-3v-35zm2 41c0 .5522847-.4477153 1-1 1h-26c-.5522847 0-1-.4477153-1-1v-26c0-.5522847.4477153-1 1-1h26c.5522847 0 1 .4477153 1 1z" fill="#f44335"/><path id="Shape" d="m42 12h-3l7 9v35c0 1.6568542-1.3431458 3-3 3h3c1.6568542 0 3-1.3431458 3-3v-35z" fill="#c81e1e"/><path id="Shape" d="m49 9.5v11.5l-7-9v-2.5c0-1.38071187-1.1192881-2.5-2.5-2.5h-9c-1.3807119 0-2.5 1.11928813-2.5 2.5v2.5h-5v-2.5c0-4.14213562 3.3578644-7.5 7.5-7.5h11c4.1421356 0 7.5 3.35786438 7.5 7.5z" fill="#ff9801"/><path id="Shape" d="m41.5 2h-3c4.1421356 0 7.5 3.35786438 7.5 7.5v7.643l3 3.857v-11.5c0-4.14213562-3.3578644-7.5-7.5-7.5z" fill="#f57c00"/><rect id="Rectangle-path" fill="#ff5722" height="28" rx="1" width="28" x="16" y="26"/><path id="Shape" d="m43 26h-3c.5522847 0 1 .4477153 1 1v26c0 .5522847-.4477153 1-1 1h3c.5522847 0 1-.4477153 1-1v-26c0-.5522847-.4477153-1-1-1z" fill="#d84315"/><path id="Shape" d="m15.9 10.95-4.81 4.12-.01.01c-.75-.98-1.56-1.96-2.44-2.97-.24-.27-.48-.53-.72-.79-1.04-1.12-2.05-2.12-3.06-3.02-.22-.2-.47-.41-.72-.63-.83962603-.72761191-1.72113447-1.40543847-2.64-2.03-.44210449-.28264714-.59054441-.8589433-.34-1.32l1.47-2.71c.26021376-.47910573.85625031-.66147512 1.34-.41 1.28111103.70544484 2.51685568 1.49030969 3.7 2.35.23.17.45.34.66.49 1.34 1 2.66 2.11 4.05 3.38.18.17.37.34.56.52 1.06 1 2.05 2.01 2.96 3.01z" fill="#607d8b"/><path id="Shape" d="m12.94 7.94c-.19-.18-.38-.35-.56-.52-1.39-1.27-2.71-2.38-4.05-3.38-.21-.15-.43-.32-.66-.49-1.18314432-.85969031-2.41888897-1.64455516-3.7-2.35-.48374969-.25147512-1.07978624-.06910573-1.34.41l-.23.425c.827.511 1.6 1.033 2.27 1.515.23.17.45.34.66.49 1.34 1 2.66 2.11 4.05 3.38.18.17.37.34.56.52 1.06 1 2.05 2.01 2.96 3.01l-3.037 2.6c.422.512.8276667 1.0213333 1.217 1.528l.01-.01 4.81-4.12c-.91-.998-1.9-2.008-2.96-3.008z" fill="#37474f"/><path id="Shape" d="m21.3 12.58c-.0451606.0308881-.0885614.0642733-.13.1l-9.07 7.42c-.1172162.098964-.2274771.2058836-.33.32l-1.24-3.09c-.3160359-.7904915-.0950694-1.6944454.55-2.25l.01-.01 4.81-4.12.01-.01c.6527132-.5611003 1.5912132-.6416582 2.33-.2z" fill="#c81e1e"/><path id="Shape" d="m31.414 40 9.293-9.293c.3789722-.3923789.3735524-1.0160848-.0121814-1.4018186s-1.0094397-.3911536-1.4018186-.0121814l-9.293 9.293-9.293-9.293c-.3923789-.3789722-1.0160848-.3735524-1.4018186.0121814s-.3911536 1.0094397-.0121814 1.4018186l9.293 9.293-9.293 9.293c-.2599566.2510745-.3642126.6228779-.2726972.9725073.0915155.3496295.3645604.6226744.7141899.7141899.3496294.0915154.7214328-.0127406.9725073-.2726972l9.293-9.293 9.293 9.293c.3923789.3789722 1.0160848.3735524 1.4018186-.0121814s.3911536-1.0094397.0121814-1.4018186z" fill="#f5f5f5"/><path id="Shape" d="m18 22c-.4208745-.0001893-.7965839-.2638798-.9398396-.6596237-.1432557-.3957438-.0233921-.8388273.2998396-1.1083763l6-5c.1796357-.1498017.4060993-.2318948.64-.232h11c.5522847 0 1 .4477153 1 1s-.4477153 1-1 1h-10.638l-5.722 4.768c-.1796357.1498017-.4060993.2318948-.64.232z" fill="#f5f5f5"/><g fill="#000"><path id="Shape" d="m43 25h-26c-1.1045695 0-2 .8954305-2 2v26c0 1.1045695.8954305 2 2 2h26c1.1045695 0 2-.8954305 2-2v-26c0-1.1045695-.8954305-2-2-2zm-26 28v-26h26v26z"/><path id="Shape" d="m.941 6.469c1.13891524.78696627 2.22522637 1.64746365 3.252 2.576 1.29830828 1.1720207 2.53117031 2.414564 3.693 3.722.715.821 1.336 1.577 1.917 2.313-.46688975.7969285-.54066543 1.7644965-.2 2.623l1.039 2.589c-.4129791.6341401-.6357578 1.373266-.642 2.13v33.578c0 2.209139 1.790861 4 4 4h32c2.209139 0 4-1.790861 4-4v-46.5c-.0055104-4.69213598-3.807864-8.49448956-8.5-8.5h-11c-4.692136.00551044-8.4944896 3.80786402-8.5 8.5v1.661c-.236376.0652017-.4660633.15259-.686.261l-2.563-1.541c-.8096329-.48437506-1.8003013-.55849915-2.673-.2-.784-.837-1.6-1.667-2.454-2.474-1.492806-1.40931669-3.061832-2.73564443-4.7-3.973-1.42130017-1.07603298-2.91741684-2.04949464-4.477-2.913-.97018749-.51760603-2.17626112-.15489056-2.7.812l-1.457 2.694c-.50782382.9153301-.22395101 2.06739148.651 2.642zm47.059 49.531c0 1.1045695-.8954305 2-2 2h-32c-1.1045695 0-2-.8954305-2-2v-33.578c-.0014404-.6000973.2678641-1.1688332.733-1.548l9.072-7.422c.3574144-.2918593.8045602-.4515038 1.266-.452h18.44l6.489 8.343zm-7-45h-12v-1.5c0-.82842712.6715729-1.5 1.5-1.5h9c.8284271 0 1.5.67157288 1.5 1.5zm-10.5-8h11c3.5880235.0044079 6.4955921 2.91197652 6.5 6.5v8.585l-5-6.428v-2.157c0-1.93299662-1.5670034-3.5-3.5-3.5h-9c-1.9329966 0-3.5 1.56700338-3.5 3.5v1.5h-3v-1.5c.0044079-3.58802348 2.9119765-6.4955921 6.5-6.5zm-12.775 8.6 1.838 1.1-7.387 6.044-.718-1.787c-.1582321-.3967068-.0450717-.8501541.281-1.126l.028-.026 4.8-4.11c.3261242-.2756644.7913087-.3138272 1.158-.095zm-3.273-.723-3.234 2.772c-.56-.7-1.152-1.422-1.833-2.2l-.038-.041 3.01-2.633c.726.682 1.421 1.388 2.095 2.099zm-3.582-3.466-2.888 2.526c-.822-.854-1.63-1.643-2.439-2.368l2.278-2.659c1.007.76 2.016 1.59 3.049 2.501zm-7.376-5.331c.92641143.50693065 1.82564257 1.06202396 2.694 1.663l-2.167 2.529c-.592-.48-1.263-.99-1.982-1.476z"/></g></g></g></svg>