<svg height="512" viewBox="0 0 60 60" width="512" xmlns="http://www.w3.org/2000/svg"><g id="034---Car-Navigation" fill="none"><path id="Path" d="m8.988 40.5c-.21429842-.002129-.40340912-.1405908-.47016048-.3442391-.06675136-.2036482.00370271-.4271896.17516048-.5557609l6.144-4.5-8.56 4.941c-.233204.1287421-.52639387.0520483-.66668716-.1743946-.1402933-.226443-.07842312-.5231151.14068716-.6746054l1.366-.909c-.22833616.0742257-.47719578-.0243285-.59280009-.2347626-.11560431-.210434-.0653118-.4733308.11980009-.6262374l4.756-3.89-.96.554c-.2187434.1297091-.50000209.0745628-.6535686-.128145s-.13051364-.4883932.0535686-.663855l2.027-1.961c-.0974747-.1134505-.1390394-.2645812-.1132886-.4119217.0257507-.1473405.1161119-.2754145.2462886-.3490783l1.69-.974c.2187434-.1297091.5000021-.0745628.6535686.128145s.1305136.4883932-.0535686.663855l-.83.8 2.757-1.59c.2250277-.1259685.5089467-.060127.6555632.1520265.1466165.2121536.1078274.5010142-.0895632.6669735l-4.753 3.889 8.16-4.71c.2327769-.1270897.524286-.0503218.6642741.174934.139988.2252559.0797468.5206233-.1372741.673066l-1.226.816 2.885-1.662c.2296891-.1296297.5205695-.0585592.6646041.1623819s.0916869.5157667-.1196041.6736181l-6.142 4.489 9.221-5.325c.2337734-.1287456.5274505-.051198.667188.1761759.1397374.2273739.07627.5244122-.144188.6748241l-.144.094 1.638-.945c.2304184-.1322364.5240189-.0611893.6684864.1617642.1444674.2229535.0893536.5199576-.1254864.6762358l-5.89 4.26 8.833-5.1c.2309306-.1317312.5245674-.0597083.6683337.1639283.1437664.2236366.0873821.520673-.1283337.6760717l-5.373 3.82 7.91-4.567c.2305507-.1302945.5227069-.0582293.6662193.1643342.1435123.2225634.0886.5184238-.1252193.6746658l-5.459 3.908 6.392-3.69c.2319831-.1309881.5259285-.0570795.6683699.1680527.1424414.2251321.0833463.52241-.1343699.6759473l-2.51 1.731 2.945-1.7c.2327682-.1379387.5330334-.0656905.677577.1630348s.0809181.5309351-.143577.6819652l-1.038.713 1.361-.781c.2243164-.1264895.5080183-.0619132.6554889.1492026s.1104702.4997121-.0854889.6667974l-4.1 3.419 5.017-2.9c.220439-.1262233.5004889-.0670999.6510942.1374575.1506054.2045574.1238973.4895314-.0620942.6625425l-2.99 2.745 3.858-2.227c.2162377-.1247517.4913592-.0708905.6445905.1261931.1532312.1970836.1376138.4769924-.0365905.6558069l-1.847 1.891 2.562-1.48c.219385-.1342545.5048344-.0801688.6599003.1250351.1550659.2052038.1291551.4945743-.0599003.6689649l-.455.436.746-.43c.1899688-.1093046.4289789-.0821498.5895855.0669849.1606065.1491346.2053671.3854813.1104145.5830151l-.5 1.03 1.012-.584c.1545439-.0892265.3449276-.0893232.4995621-.0002537s.2500767.2538018.2504379.4322537v.613c.2243215.0038672.4186032.1566811.4752068.3737782.0566036.217097-.0383309.4453182-.2322068.5582218l-.492.284c-.1545439.0892265-.3449276.0893232-.4995621.0002537s-.2500767-.2538018-.2504379-.4322537v-.531l-1.672.965c-.1899688.1093046-.4289789.0821498-.5895855-.0669849-.1606065-.1491346-.2053671-.3854813-.1104145-.5830151l.5-1.03-2.915 1.682c-.219385.1342545-.5048344.0801688-.6599003-.1250351-.1550659-.2052038-.1291551-.4945743.0599003-.6689649l.454-.435-2.132 1.231c-.2162377.1247517-.4913592.0708905-.6445905-.1261931-.1532312-.1970836-.1376138-.4769924.0365905-.6558069l1.848-1.891-4.636 2.676c-.220439.1262233-.5004889.0670999-.6510942-.1374575-.1506054-.2045574-.1238973-.4895314.0620942-.6625425l2.988-2.747-6.149 3.55c-.2243164.1264895-.5080183.0619132-.6554889-.1492026s-.1104702-.4997121.0854889-.6667974l4.1-3.418-7.342 4.237c-.2324067.1328499-.5282158.0590851-.6710333-.1673329s-.0819688-.5251514.1380333-.6776671l1.031-.709-2.694 1.556c-.2319831.1309881-.5259285.0570795-.6683699-.1680527-.1424414-.2251321-.0833463-.52241.1343699-.6759473l2.516-1.735-4.464 2.58c-.2305507.1302945-.5227069.0582293-.6662193-.1643342-.1435123-.2225634-.0886-.5184238.1252193-.6746658l5.456-3.905-8.223 4.747c-.2309306.1317312-.5245674.0597083-.6683337-.1639283-.1437664-.2236366-.0873821-.520673.1283337-.6760717l5.376-3.82-8.076 4.662c-.2304184.1322364-.5240189.0611893-.6684864-.1617642-.1444674-.2229535-.0893536-.5199576.1254864-.6762358l5.89-4.261-8.837 5.1c-.1521951.0936036-.3427662.0989017-.4999268.0138987-.1571607-.0850031-.2570345-.2473934-.262-.426-.0049655-.1786067.0857317-.3462951.2379268-.4398987l.142-.092-1.639.946c-.07631649.046213-.16378234.0707588-.253.071z" fill="#2783ec"/><path id="Path" d="m9.718 39.47c-.21978008.0002798-.41397415-.1429906-.47855996-.3530669s.01558173-.4376964.19755996-.5609331l.629-.426-2.204 1.27c-.22741316.1273482-.51450549.05864-.65962634-.1578646-.14512084-.2165046-.09958382-.5081708.10462634-.6701354l5.71-4.411-4.779 2.76c-.22590421.1277621-.51200417.0614438-.65865933-.152678-.14665516-.2141217-.10510389-.5048532.09565933-.669322l3.032-2.438c-.2225982.0709676-.4646676-.0216807-.5830007-.2231345-.1183332-.2014538-.0813789-.4579995.0890007-.6178655l1.63-1.52c-.011-.015-.021-.029-.031-.045-.0662084-.1155369-.0835941-.2527113-.0483026-.3811124.0352916-.1284011.1203444-.2374199.2363026-.3028876l1.691-.974c.2205392-.1280792.5021318-.0696485.6535046.1356028.1513729.2052513.124009.4915375-.0635046.6643972l-.174.164 1.679-.97c.2260575-.1301558.5141897-.0646595.6617686.1504288.1475789.2150884.1050107.5074886-.0977686.6715712l-2.977 2.393 5.59-3.227c.2275891-.1298897.5168511-.062032.6629348.1555172.1460838.2175492.0994243.5109773-.1069348.6724828l-5.708 4.409 7.916-4.569c.2329673-.1327691.5291919-.0581284.6714287.1691822.1422368.2273105.0798406.5263539-.1414287.6778178l-.634.428.108-.061c.2240372-.1259992.5071082-.0616068.6545964.1489061s.1113381.4985559-.0835964.6660939l-4.063 3.413 3.5-2.019c.2151117-.1243892.4889299-.0719324.6428382.1231521s.1411987.4735922-.0298382.6538479l-2.252 2.353 1.638-.945c.2125801-.1214168.481811-.0710563.6361309.1189903.1543198.1900467.1483392.4638818-.0141309.6470097l-.412.46c.2335591-.0205628.4500383.1239282.5206423.3475077s-.0236321.4661911-.2266423.5834923l-2.409 1.388c-.2125801.1214168-.481811.0710563-.6361309-.1189903-.1543198-.1900467-.1483392-.4638818.0141309-.6470097l.313-.349-1.933 1.115c-.2150358.1228992-.4876397.0698481-.6408929-.1247234-.1532532-.1945714-.1409636-.4720174.0288929-.6522766l2.242-2.352-5.421 3.129c-.2241703.1280952-.5090066.0644456-.6573283-.1468868-.1483216-.2113324-.1113468-.5008421.0853283-.6681132l4.063-3.412-7.323 4.227c-.0757164.0449383-.1619569.0690856-.25.07z" fill="#0c70dc"/><path id="Path" d="m29.941 53.471c-.2223284-.0000763-.4179003-.1469477-.4799566-.36044-.0620563-.2134922.0243114-.4423157.2119566-.56156l1.93-1.228-3.603 2.079c-.2338963.1269547-.5262491.04845-.6650871-.1785941-.1388379-.227044-.0755015-.5230536.1440871-.6734059l4.7-3.038-6.745 3.89c-.23171.1276221-.5227312.0526794-.6639792-.1709853s-.08384-.5186462.1309792-.6730147l9.6-6.571-12.849 7.415c-.23265.1288599-.5254615.0530472-.6663444-.1725252s-.0805297-.5219566.1373444-.6744748l8.777-5.918-11.72 6.765c-.2341443.133112-.5316521.0568382-.672871-.1725078-.1412189-.2293459-.075396-.5293391.148871-.6784922l6.15-4.018-8.434 4.869c-.2334572.1253051-.5241289.0467367-.6626677-.1791186-.1385388-.2258554-.0768365-.5205686.1406677-.6718814l5.686-3.7-7.885 4.551c-.2322377.1273115-.5234633.0514462-.664069-.1729923-.1406056-.2244384-.0818101-.5195841.134069-.6730077l8.942-6.046-11.939 6.892c-.23290614.1254293-.52320856.0477402-.66233729-.1772508s-.0789338-.5194187.13733729-.6717492l7.124-4.7-9.614 5.549c-.23184122.125947-.52164614.0500755-.66202867-.1733204-.14038253-.223396-.08302436-.5174256.13102867-.6716796l9.3-6.329-12.427 7.174c-.23290614.1254293-.52320856.0477402-.66233729-.1772508s-.0789338-.5194187.13733729-.6717492l7.065-4.651-7.711 4.447c-.23116481.1139062-.51103872.0334578-.64643321-.185814-.1353945-.2192717-.08195397-.5055329.12343321-.661186l4.393-2.871-3.871 2.234c-.23265.1288599-.5254615.0530472-.66634439-.1725252s-.08052968-.5219566.13734439-.6744748l4.915-3.309-4.386 2.531c-.23223773.1273115-.52346332.0514462-.66406897-.1729923-.14060566-.2244384-.08181009-.5195841.13406897-.6730077l2.977-2.019-1.446.834c-.22741316.1273482-.51450549.05864-.65962634-.1578646-.14512084-.2165046-.09958382-.5081708.10462634-.6701354l4.118-3.179-3.564 2.059c-.22727134.1290292-.5155715.0612656-.66156584-.155498s-.10042617-.5093938.10456584-.671502l1.778-1.384-1.216.7c-.22186466.1262356-.50319614.0650788-.65263166-.1418714-.14943551-.2069502-.11898816-.4932377.07063166-.6641286l1.165-1.038-.583.336c-.18775791.1041346-.4210373.0767761-.5796065-.0679749-.15856919-.144751-.20702504-.3745766-.1203935-.5710251l.64-1.407c-.2068789.0380584-.41516728-.0590626-.519-.242-.13738473-.2389169-.05553486-.543953.183-.682l1.156-.67c.18802218-.1080877.42428716-.0826392.58497897.0630091.16069182.1456483.20916667.3782832.12002103.5759909l-.618 1.361 3.462-2c.21965724-.1150716.4904677-.0517642.63634839.148759.14588069.2005233.12275168.4776716-.05434839.651241l-1.163 1.039 3.188-1.839c.22744501-.1317107.51803557-.064845.66504038.1530278.14700482.2178727.10023334.512366-.10704038.6739722l-1.773 1.384 3.834-2.211c.2275891-.1298897.5168511-.062032.6629348.1555172.1460838.2175492.0994243.5109773-.1069348.6724828l-4.115 3.172 6.933-4c.2325262-.1307666.5267591-.0559509.6685809.1700024s.0812744.5234503-.1375809.6759976l-2.978 2.02 4.965-2.866c.23265-.1288599.5254615-.0530472.6663444.1725252s.0805297.5219566-.1373444.6744748l-4.918 3.311 7.2-4.158c.2341443-.133112.5316521-.0568382.672871.1725078.1412189.2293459.075396.5293391-.148871.6784922l-4.387 2.863 6.441-3.714c.2329061-.1254293.5232086-.0477402.6623373.1772508s.0789338.5194187-.1373373.6717492l-7.069 4.661 9.544-5.51c.2318412-.125947.5216461-.0500755.6620287.1733204.1403825.223396.0830243.5174256-.1310287.6716796l-9.3 6.329 12.425-7.174c.2329061-.1254293.5232086-.0477402.6623373.1772508s.0789338.5194187-.1373373.6717492l-7.125 4.7 9.615-5.549c.2322377-.1273115.5234633-.0514462.664069.1729923.1406056.2244384.0818101.5195841-.134069.6730077l-8.943 6.044 11.942-6.89c.2334572-.1253051.5241289-.0467367.6626677.1791186.1385388.2258554.0768365.5205686-.1406677.6718814l-5.68 3.7 7.876-4.551c.2337734-.1287456.5274505-.051198.667188.1761759.1397374.2273739.07627.5244122-.144188.6748241l-6.149 4.018 8.433-4.869c.23265-.1288599.5254615-.0530472.6663444.1725252s.0805297.5219566-.1373444.6744748l-8.782 5.922 11.7-6.753c.2321092-.1290838.5246372-.0541763.6661393.170578.1415021.2247542.0825963.5209195-.1341393.674422l-9.591 6.567 12.637-7.3c.2347713-.1336383.5332399-.0566316.6740509.1739091.1408109.2305408.0730402.5312411-.1530509.6790909l-4.7 3.039 6.6-3.812c.2348642-.1312813.531504-.0531604.6712412.1767732.1397372.2299337.0724576.5292187-.1522412.6772268l-1.938 1.238 3.5-2.02c.2341443-.133112.5316521-.0568382.672871.1725078.1412189.2293459.075396.5293391-.148871.6784922l-6.307 4.143 8.394-4.846c.2336556-.130691.5287926-.0541466.6694787.1736308.140686.2277774.0769932.5259521-.1444787.6763692l-6.643 4.392 7.509-4.335c.2329061-.1254293.5232086-.0477402.6623373.1772508s.0789338.5194187-.1373373.6717492l-5.064 3.34 4.906-2.832c.2333681-.1382671.5344194-.0652417.6785003.1645824.144081.2298241.078635.5326135-.1475003.6824176l-5.252 3.561 4.726-2.727c.2286312-.1323821.5207966-.0640496.667.156.1463361.2205214.0954817.5168793-.116.676l-6.2 4.68 5.654-3.264c.2319831-.1309881.5259285-.0570795.6683699.1680527.1424414.2251321.0833463.52241-.1343699.6759473l-.4.277c.2271157-.0580998.4641035.0493947.5699987.2585437.1058952.2091491.0522615.4637894-.1289987.6124563l-2.776 2.278 3.187-1.839c.2164748-.1176434.486383-.0600602.6359981.1356862.149615.1957464.134338.4713056-.0359981.6493138l-2.21 2.227 1.607-.927c.2070776-.118794.4692493-.0746242.6259727.1054616.1567233.1800859.1642736.4458451.0180273.6345384l-.609.783c.2418161-.1126835.529506-.0156699.6537037.2204392.1241977.2361092.0411507.5281371-.1887037.6635608l-2.169 1.256c-.2068846.1189418-.4689871.0751042-.6259077-.1046854-.1569206-.1797897-.1649156-.4454126-.0190923-.6343146l.607-.78-2.633 1.519c-.2164748.1176434-.486383.0600602-.6359981-.1356862-.149615-.1957464-.134338-.4713056.0359981-.6493138l2.209-2.226-5.221 3.011c-.2253151.1304911-.5130605.0662242-.6614447-.1477312-.1483843-.2139555-.1077334-.5059746.0934447-.6712688l2.776-2.281-5.37 3.1c-.2319831.1309881-.5259285.0570795-.6683699-.1680527-.1424414-.2251321-.0833463-.52241.1343699-.6759473l.2-.135-1.7.98c-.2287194.1310429-.5198877.0620127-.6654353-.1577616-.1455476-.2197742-.0954752-.5147944.1144353-.6742384l6.2-4.681-9.552 5.512c-.2325262.1307666-.5267591.0559509-.6685809-.1700024s-.0812744-.5234503.1375809-.6759976l5.251-3.567-7.645 4.413c-.2329061.1254293-.5232086.0477402-.6623373-.1772508s-.0789338-.5194187.1373373-.6717492l5.061-3.338-7.253 4.187c-.233204.1287421-.5263939.0520483-.6666872-.1743946-.1402933-.226443-.0784231-.5231151.1406872-.6746054l6.643-4.391-9.077 5.24c-.2336556.130691-.5287926.0541466-.6694787-.1736308-.140686-.2277774-.0769932-.5259521.1444787-.6763692l6.31-4.146-8.655 5c-.0760084.0438886-.1622305.0669961-.25.067z" fill="#b9bfcc"/><path id="Path" d="m29.372 25.8c-.2058444.0001752-.3907608-.1258204-.4659121-.3174561-.0751512-.1916356-.0251778-.4097448.1259121-.5495439l1.885-1.743-2.355 1.359c-.2277686.1327124-.5194462.0657934-.6665848-.1529333s-.0991876-.5141157.1095848-.6750667l2.027-1.57-2.346 1.349c-.2300482.1308569-.5222207.059778-.6664488-.1621318-.1442281-.2219099-.0905463-.5177734.1224488-.6748682l2.227-1.621-2.5 1.443c-.2321092.1290838-.5246372.0541763-.6661393-.170578-.1415021-.2247542-.0825963-.5209195.1341393-.674422l.589-.4-.7.4c-.2322938.1351768-.5298928.0625367-.6737842-.164462-.1438914-.2269988-.0825928-.5271392.1387842-.679538l2.544-1.759-2.747 1.585c-.2304184.1322364-.5240189.0611893-.6684864-.1617642-.1444674-.2229535-.0893536-.5199576.1254864-.6762358l5.873-4.255-6.31 3.643c-.2295527.1314921-.521805.0614183-.6667704-.1598726-.1449654-.2212908-.0924688-.5172061.1197704-.6751274l7.246-5.337-7.7 4.447c-.233204.1287421-.5263939.0520483-.6666872-.1743946-.1402933-.226443-.0784231-.5231151.1406872-.6746054l1.53-1.013-1.517.875c-.2330829.1306613-.5277074.0549657-.6689423-.1718661-.1412349-.2268319-.0791592-.5246238.1409423-.6761339l2.9-1.95-2.895 1.671c-.2318603.1330617-.527371.0602043-.6708066-.1653857-.1434357-.22559-.0840493-.5240996.1348066-.6776143l5.365-3.739-5.368 3.1c-.2349972.1469077-.5445923.0754972-.6915-.1595s-.0754972-.5445923.1595-.6915l3.087-2.094-2.942 1.7c-.2319596.1504976-.5420024.0844596-.6925-.1475s-.0844596-.5420024.1475-.6925l4.454-3.13-4.11 2.373c-.2317427.1353654-.5290201.0636298-.6735243-.1625272-.1445041-.2261571-.084687-.5260601.1355243-.6794728l3.339-2.35-2.745 1.583c-.2256086.12712642-.5109479.06095755-.657579-.15248957-.1466312-.21344713-.106025-.50352978.093579-.66851043l4.76-3.857-3.496 2.021c-.222272.1250569-.5030453.06278062-.6515981-.14452625s-.1172703-.49319734.0725981-.66347375l2.28-2c-.1940281-.05412553-.3366285-.21939748-.361748-.41926119-.0251194-.1998637.0721481-.39528298.246748-.49573881l3.434-1.981c.2226556-.12737455.5055829-.06559282.6548741.14300234s.1165111.49632815-.0758741.66599766l-1.699 1.488 4.58-2.643c.2262112-.13277571.5165722-.06817453.6651499.14798637.1485778.21616091.1048589.51039122-.1001499.67401363l-4.758 3.855 6.925-4c.2321137-.1412643.5345566-.07130005.681052.15754808s.0834127.53280084-.142052.68445192l-3.342 2.353 4.191-2.419c.2314518-.13131281.5252013-.05833565.6682918.16602591.1430904.22436156.0853808.52148787-.1312918.67597409l-4.457 3.131 5.156-2.976c.2322377-.12731148.5234633-.05144622.664069.17299225.1406056.22443847.0818101.51958413-.134069.67300775l-3.083 2.092 3.45-1.992c.2318603-.13306172.527371-.0602043.6708066.16538571.1434357.22559001.0840493.52409963-.1348066.67761429l-5.369 3.75 5.671-3.274c.2330829-.13066131.5277074-.05496574.6689423.17186612.1412349.22683187.0791592.52462377-.1409423.67613388l-2.899 1.944 2.843-1.64c.233204-.12874209.5263939-.05204834.6666872.17439464s.0784231.52311505-.1406872.67460536l-1.517 1.007 1.348-.776c.2295527-.13149209.521805-.0614183.6667704.15987256.1449654.22129087.0924688.51720615-.1197704.67512744l-7.247 5.336 6.89-3.978c.2304184-.13223644.5240189-.06118928.6684864.16176419.1444674.22295351.0893536.51995761-.1254864.67623581l-5.874 4.256 5.011-2.893c.2319831-.1309881.5259285-.0570795.6683699.1680527.1424414.2251321.0833463.52241-.1343699.6759473l-2.539 1.756 1.459-.842c.2328603-.1351428.5309189-.0616362.6742423.1662803.1433233.2279164.080443.5283964-.1422423.6797197l-1.071.732c.1860902-.0169576.3665106.0694139.47.225.1444175.2227827.0895342.5195915-.125.676l-2.23 1.619.507-.292c.2277686-.1327124.5194462-.0657934.6665848.1529333s.0991876.5141157-.1095848.6750667l-2.088 1.617c.2241642-.0772532.4717631.0135555.5928243.2174226.1210613.2038672.0822923.464728-.0928243.6245774l-2.676 2.476c.1588943.0863085.2588083.251682.2612964.4324867.0024882.1808048-.0928373.3488651-.2492964.4395133l-2.588 1.5c-.0765954.0442292-.1635525.0673487-.252.067z" fill="#fcc10a"/><path id="Path" d="m29.948 15.461c-.2028469-.0000364-.3855705-.1226235-.4625286-.3103048-.0769582-.1876814-.0328984-.4032603.1115286-.5456952l2.258-2.233-4.039 2.328c-.2280542.1290416-.517047.0601323-.6623353-.1579314-.1452882-.2180638-.0975826-.5113034.1093353-.6720686l1.053-.8-1.506.869c-.2226556.1273746-.5055829.0655928-.6548741-.1430023-.1492912-.2085952-.1165111-.4963282.0758741-.6659977l3.523-3.066-4.024 2.322c-.227871.1265147-.5147039.056766-.6590373-.1602571s-.0977476-.5085154.1070373-.6697429l1.384-1.056-1.164.672c-.220439.1262233-.5004889.0670999-.6510942-.1374575-.1506054-.2045574-.1238973-.4895314.0620942-.6625425l2.7-2.494-2 1.154c-.2205392.12807919-.5021318.06964847-.6535046-.13560283-.1513729-.2052513-.124009-.49153743.0635046-.66439717l1.219-1.127c-.0769729-.04329118-.1408747-.10650218-.185-.183-.1380647-.23914015-.0561341-.54492481.183-.683l2.545-1.468c.2205392-.12807919.5021318-.06964847.6535046.13560283.1513729.2052513.124009.49153743-.0635046.66439717l-.392.362 2-1.154c.2205392-.12807919.5021318-.06964847.6535046.13560283.1513729.2052513.124009.49153743-.0635046.66439717l-2.7 2.5 4.08-2.355c.227871-.12651469.5147039-.05676597.6590373.16025712.1443334.2170231.0977476.50851535-.1070373.66974288l-1.387 1.046 1.725-1c.2229237-.12779857.5064223-.06581962.6556784.14334552s.11567.49740953-.0776784.66665448l-3.517 3.073 3.726-2.15c.2280542-.12904158.517047-.0601323.6623353.15793143.1452882.21806373.0975826.5113034-.1093353.67206857l-1.052.8.7-.4c.217772-.12398428.4936884-.06761168.6453756.13185696.1516872.19946865.1322878.48041594-.0453756.65714304l-2.26 2.235.933-.54c.1549945-.0985297.351531-.1041539.5119064-.0146489.1603754.0895049.2587712.2597296.2562855.4433739s-.1054527.3511436-.2681919.436275l-4.3 2.482c-.0765954.0442292-.1635525.0673487-.252.067z" fill="#f0f2f5"/><path id="Path" d="m12.664 59.416c-.2139653.0006202-.4046112-.1349745-.4742367-.3372956-.0696256-.2023211-.0027975-.4265214.1662367-.5577044l.446-.346-1.524.879c-.2229237.1277986-.5064223.0658196-.6556784-.1433455-.1492561-.2091652-.11567-.4974096.0776784-.6666545l3.855-3.355-5.195 3c-.22741316.1273482-.51450549.05864-.65962634-.1578646-.14512084-.2165046-.09958382-.5081708.10462634-.6701354l3.331-2.581-3.836 2.22c-.22776864.1327124-.51944616.0657934-.66658476-.1529333-.14713861-.2187267-.0991876-.5141157.10958476-.6750667l3.525-2.732-3.692 2.125c-.23018285.1290216-.52100516.0569569-.66431246-.1646141-.1433073-.2215711-.08976142-.5163656.12231246-.6733859l1.182-.853-.836.483c-.22277229.1294397-.50743111.0684047-.65755259-.1409889-.15012149-.2093936-.11654846-.4985799.07755259-.6680111l3.447-3.022-2.7 1.559c-.219385.1342545-.50483439.0801688-.65990028-.1250351-.1550659-.2052038-.12915517-.4945743.05990028-.6689649l1.716-1.642c-.19581329-.0514415-.34127888-.2158895-.36843808-.4165171s.06934909-.3978319.24443808-.4994829l2.779-1.6c.219385-.1342545.5048344-.0801688.6599003.1250351.1550659.2052038.1291551.4945743-.0599003.6689649l-1.277 1.223 3.505-2.024c.2227723-.1294397.5074311-.0684047.6575526.1409889s.1165485.4985799-.0775526.6680111l-3.448 3.022 5.01-2.891c.2301828-.1290216.5210052-.0569569.6643125.1646141.1433073.2215711.0897614.5163656-.1223125.6733859l-1.181.851 1.478-.852c.2277686-.1327124.5194462-.0657934.6665848.1529333s.0991876.5141157-.1095848.6750667l-3.524 2.731 3.867-2.232c.2275891-.1298897.5168511-.062032.6629348.1555172.1460838.2175492.0994243.5109773-.1069348.6724828l-3.333 2.574 3.288-1.9c.2225362-.1254221.5038286-.0629326.6523283.1449156.1484997.2078483.1164484.49421-.0743283.6640844l-3.856 3.359 3.276-1.891c.227445-.1317107.5180356-.064845.6650404.1530278.1470048.2178727.1002333.512366-.1070404.6739722l-.837.652c.225188.0026846.4207915.1555816.477771.3734581s-.0387284.4469577-.233771.5595419l-5.587 3.227c-.0757424.0446404-.1620816.0681246-.25.068z" fill="#79808f"/><path id="Path" d="m11.951 55.144c-.197099.0000095-.3758133-.1157728-.4563634-.2956608-.08055-.179888-.0479045-.3903129.0833634-.5373392l.464-.52-.575.332c-.2007434.1163087-.4551239.0792495-.614339-.0894994s-.1814346-.4248526-.053661-.6185006l.62-.94c-.2090143.037676-.4193598-.0589152-.527-.242-.1375532-.2386555-.0561721-.5436114.182-.682l1.64-.947c.2009692-.1171095.4561522-.0801663.6156581.0891296s.181201.4262249.0523419.6198704l-.582.887 1.448-.836c.2126491-.1227903.4829898-.0729918.6379285.1175105.1549386.1905024.1486122.4653186-.0149285.6484895l-.466.521.3-.172c.1547852-.0907422.3463247-.0915917.5019087-.0022259.155584.0893657.2513568.2552442.2509624.4346667-.0003945.1794226-.0968957.3448784-.2528711.4335592l-3 1.73c-.0767893.0457346-.164625.0695955-.254.069z" fill="#b9bfcc"/><path id="Path" d="m45.732 59.267c-.2163244.0026172-.4097947-.134187-.4794352-.339012-.0696405-.2048251.0003472-.431205.1734352-.560988l1.487-1.158-2.454 1.417c-.2262036.1284409-.5131028.0619842-.6597948-.1528333-.1466919-.2148176-.1041677-.5062269.0977948-.6701667l3.276-2.603-4.123 2.38c-.2312043.1356861-.5282776.0648879-.6734329-.160492-.1451554-.2253799-.0867349-.525133.1324329-.679508l1.06-.757-1.265.731c-.2304184.1322364-.5240189.0611893-.6684864-.1617642-.1444674-.2229535-.0893536-.5199576.1254864-.6762358l1.7-1.229-1.716.99c-.2248836.1275609-.509928.0626394-.65739-.1497267-.1474621-.2123662-.1087026-.5021295.08939-.6682733l4.112-3.4-3.967 2.281c-.2274132.1273482-.5145055.05864-.6596263-.1578646-.1451209-.2165046-.0995839-.5081708.1046263-.6701354l1.787-1.372-1.061.612c-.216157.1232114-.4900183.0687436-.6425795-.1278015-.1525612-.196545-.1373975-.4753583.0355795-.6541985l1.922-1.96c-.1828197-.001135-.3524523-.0953753-.45-.25-.1373847-.2389169-.0555349-.543953.183-.682l2.779-1.6c.2162377-.1247517.4913592-.0708905.6445905.1261931.1532312.1970836.1376138.4769924-.0365905.6558069l-1.767 1.8 4.378-2.527c.2275891-.1298897.5168511-.062032.6629348.1555172.1460838.2175492.0994243.5109773-.1069348.6724828l-1.795 1.379 2.636-1.522c.225024-.1298327.5119893-.0657046.6603401.147566s.108657.5046224-.0913401.670434l-4.105 3.404 5.026-2.9c.2298251-.1278768.5194281-.0558458.6625685.1647961s.0908781.5144564-.1195685.6722039l-1.7 1.229 1.767-1.021c.2312043-.1356861.5282776-.0648879.6734329.160492.1451554.2253799.0867349.525133-.1324329.679508l-1.06.757.951-.549c.226507-.1291681.5142486-.0625855.6609917.1529516.1467432.2155372.103215.5076567-.0999917.6710484l-3.276 2.603 2.941-1.7c.2272713-.1290292.5155715-.0612656.6615658.155498.1459944.2167636.1004262.5093938-.1045658.671502l-1.487 1.158.674-.39c.2207276-.1320893.5056598-.0751513.6586724.1316224.1530126.2067738.124171.4959044-.0666724.6683776l-1.652 1.548c.1814029.0665334.3082349.2316323.3257668.4240546.0175318.1924223-.0773749.377724-.2437668.4759454l-2.78 1.606c-.2207276.1320893-.5056598.0751513-.6586724-.1316224-.1530126-.2067738-.124171-.4959044.0666724-.6683776l1.087-1.018-3.193 1.849c-.0758791.0441999-.1621868.0673304-.25.067z" fill="#79808f"/><path id="Path" d="m45.852 55.045c-.1910362.0001326-.3654516-.1086004-.4494367-.2801852-.0839852-.1715848-.0628596-.3760288.0544367-.5268148l.787-1.012-.884.509c-.2088997.1188201-.4727821.0722109-.6283375-.1109825-.1555554-.1831933-.1587734-.4511411-.0076625-.6380175l.434-.531c-.1127891-.0390561-.2073988-.1180161-.266-.222-.1375532-.2386555-.0561721-.5436114.182-.682l1.64-.947c.2092222-.121191.4751879-.0753075.6317098.1089805s.1587492.4541733.0052902.6410195l-.121.147.728-.42c.2068846-.1189418.4689871-.0751042.6259077.1046854.1569206.1797897.1649156.4454126.0190923.6343146l-.788 1.013.847-.488c.1549945-.0985297.351531-.1041539.5119064-.0146489.1603754.0895049.2587712.2597296.2562855.4433739s-.1054527.3511436-.2681919.436275l-3.062 1.768c-.0754207.0435509-.160909.0666466-.248.067z" fill="#b9bfcc"/><path id="Path" d="m57.5 43.47c-.153223-.0002686-.2978637-.070777-.3924594-.1913134-.0945958-.1205364-.1287015-.2777915-.0925406-.4266866l.135-.559-1.914 1.1c-.2125801.1214168-.481811.0710563-.6361309-.1189903-.1543198-.1900467-.1483392-.4638818.0141309-.6470097l.38-.424-1.055.608c-.2026102.1171729-.4593916.0781155-.618-.094-.1584117-.1724945-.1758672-.4318329-.042-.624l.809-1.158-.808.466c-.1762056.1016337-.3964188.0863879-.5569379-.0385578-.160519-.1249458-.2293432-.3346826-.1740621-.5304422l.233-.821c-.1556679-.0890543-.2517179-.2546591-.2517179-.434s.09605-.3449457.2517179-.434l.473-.273c.1762056-.1016337.3964188-.0863879.5569379.0385578.160519.1249458.2293432.3346826.1740621.5304422l-.136.481 1.688-.975c.2028685-.1169845.4597544-.0774921.6181161.0950262s.1757685.4318386.0418839.6239738l-.808 1.157 1.818-1.05c.2128621-.1227709.4833831-.0726697.6381602.1181888.1547771.1908586.1479267.4658947-.0161602.6488112l-.38.424.214-.123c.1732351-.0994732.3890542-.0862872.5488908.0335359s.2330131.3232855.1861092.5174641l-.2.833c.1721467.0759458.2870833.2421034.2974267.4299737s-.0856578.3656413-.2484267.4600263l-.494.285c-.076687.0463229-.1644118.0711898-.254.072z" fill="#f5ab01"/><g fill="#262626"><path id="Shape" d="m13.286 50.6c-1.3809253-.0726055-2.6240256.8317709-2.98 2.168-.0880605.6393715.0986184 1.2861429.5138376 1.7802518.4152191.4941089 1.0201782.789383 1.6651624.8127482.0736035.0250744.1513791.035603.229.031.0754827.0025413.1509349-.0058797.224-.025 1.3383738-.0037955 2.4929999-.9402377 2.773-2.249.0546253-.6667007-.1799318-1.3247204-.6439586-1.8065429-.4640268-.4818224-1.1127577-.7409654-1.7810414-.7114571zm0 4c-.7527909-.0704942-1.3693812-.6280709-1.515-1.37-.132-.645.138-1.762.943-1.838.7-.065 1.322.668 1.487 1.268.177.64-.062 1.898-.915 1.94z"/><path id="Shape" d="m47.283 50.594c-1.3826954-.0724357-2.6262825.8358256-2.978 2.175-.086362.6414381.1015339 1.2895777.5175789 1.7853678s1.0217295.79334 1.6684211.8196322c.0723919.0258493.1492774.0367357.226.032.0762117.0027363.1524006-.0060288.226-.026 1.3392359-.0047627 2.493143-.944474 2.769-2.255.0540246-.6684416-.1808451-1.3280106-.6451961-1.8118608-.4643509-.4838503-1.1137064-.7456374-1.7838039-.7191392zm0 4c-.7508851-.0654389-1.3676678-.620217-1.512-1.36-.132-.647.141-1.751.946-1.828.7-.067 1.319.657 1.484 1.258.177.641-.065 1.884-.918 1.93z"/><path id="Shape" d="m58.724 45.746c-.0640001-.7139018-.0640001-1.4320982 0-2.146 0-.9.257-2.513-.266-3.329-1.807-2.815-8.695-1.048-11.443-1.5-3.672-.606-6.576-5.03-9.551-7.435-2.687-2.172-5.142-1.616-8.571-1.616-4.672 0-9.616-.481-14.266 0-2.613.271-3.41 1.784-4.965 3.785-1.109 1.427-2.285 3.644-3.68 5-.07851705.0059459-.15587743.022427-.23.049-.14-.186-1.208.036-2.052.163-.32521245.0069062-.64738176.0642557-.955.17-1.733.8-1.469 1.624-1.469 3.462 0 1.276.337 3 0 4.24-.124.455-.615.533-.695.873-.295 1.248-1.033 4.486.051 5.464 1.122 1.013 4.155.43 5.65.367.131 8.163 12.483 7.7 13.393.1h20.61c.254 8.114 12.567 7.654 13.4-.056 2.213.149 5.025.465 6.031-1.571.566-1.145-.021-3.533-.329-4.694-.113-.44-.534-.672-.663-1.326zm-1.448-3.862c.0736126.2687294.1231416.5434818.148.821-.655.015-1.312.027-1.959-.017-1.767-.122-1.767-1.783-1.746-3.143 1.581-.003 2.906.141 3.557 2.339zm-21.427-10.29c2.4 1.848 4.631 5.167 7.243 6.9h-20.368v-8.277c1.893.027 3.784.065 5.664.065 2.912 0 5.141-.475 7.461 1.312zm-27.111 4.668c2.075-2.67 3.278-5.816 6.694-5.98 1.939-.093 3.891-.1 5.844-.079v8.289h-14.343c.66593248-.6889323 1.26993007-1.4351454 1.805-2.23zm3.416 22.2c-2.58919652-.6169762-4.41065468-2.9383612-4.394-5.6-.06659231-1.6609136.67242135-3.2518827 1.98454186-4.2723768 1.31212054-1.0204941 3.03606134-1.3450735 4.62945814-.8716232 2.3115572.8077906 3.8690618 2.9775005 3.895 5.426-.196 3.156-2.647 6.034-6.115 5.316zm34.457.029c-2.7967416-.3934361-4.8700212-2.7967986-4.849-5.621-.0470591-1.573133.624047-3.0822503 1.8237046-4.100967s2.7975815-1.4363982 4.3422954-1.135033c2.5234802.6302832 4.3051401 2.882206 4.338 5.483-.181 2.983-2.394 5.738-5.655 5.372zm11.577-5.771c-.494.495-3.4.081-4.472.011-.519-8.156-12.875-7.88-13.417-.118h-20.599c-.636-8.061-13.032-7.637-13.411.191-1.242.117-2.872.279-3.534-.084-1.19-.653-1.736-3.914-.834-5.211h2c.3 0 .765-.234.8-.569.043-.373-.392-.445-.661-.445h-1.342c-.18457889-1.7783285-.18256794-3.57109.006-5.349.082-.392-.186-1.549.181-1.862.436-.373 1.814.12 2.489.02.13448349.1518208.3344529.2286748.536.206h39c.119574-.0010461.237543-.0276402.346-.078 2.117.432 5.074.066 7 .112-.007 1.46-.155 3.173 1.6 3.679 1.1859886.1926092 2.3925512.2242281 3.587.094.027 1.068-.119 2.253-.171 3.269h-1.012c-.3638003-.0259404-.7182812.1225333-.955.4-.165.288.14.434.395.434h1.824c.881.904 1.403 4.537.644 5.298z"/><path id="Shape" d="m39.713 9.859c0-.018.013-.034.011-.053-.658-8.968-12.091-12.664-17.577-5.253-5.078 6.86 1.412 15.685 6.411 20.945h-5.486c-.806 0-1.131 1-.144 1h14c.806 0 1.131-1 .144-1h-5.84c4.041-4.211 8.134-9.664 8.5-15.574-.002-.024-.016-.042-.019-.065zm-15.366-5.93c6.033-5.881 13.378-.461 13.92 6.188-.364 5.663-4.28 10.94-8.157 15-3.0142825-3.004053-5.4573354-6.5310624-7.21-10.409-1.582-3.799-1.685-7.727 1.447-10.779z"/><path id="Shape" d="m35.724 9.806c-.378-7.031-11.42-6.335-11.448.388-.03 7.126 11.092 6.238 11.448-.388zm-10 0c.018-2.75 2.365-5.18 5.2-4.276 1.9925136.6872515 3.3350244 2.55634704 3.35 4.664-.155 2.877-2.6 5.5-5.656 4.124-1.7588262-.814607-2.8871098-2.5737-2.894-4.512z"/><path id="Path" d="m38.476 46.727h-16c-.284 0-1.628.546-.952.546h16c.284 0 1.628-.546.952-.546z"/></g></g></svg>