<svg height="512" viewBox="0 0 36 60" width="512" xmlns="http://www.w3.org/2000/svg"><g id="038---Street-View-Marker" fill="none"><path id="Path" d="m18.439 59.454c-.2197801.0002798-.4139741-.1429906-.47856-.3530669-.0645858-.2100763.0155818-.4376964.19756-.5609331l2.3-1.562-4.085 2.358c-.2292016.1303039-.5201978.0602449-.6649792-.1600976s-.0935911-.5152436.1169792-.6739024l6.745-5.012-9.67 5.58c-.2329061.1254293-.5232086.0477402-.6623373-.1772508s-.0789338-.5194187.1373373-.6717492l1.864-1.233-3.176 1.833c-.2313261.1333882-.5266402.061466-.670727-.1633522-.1440867-.2248181-.0860887-.5231794.131727-.6776478l6.208-4.392-8.192 4.729c-.23377341.1287456-.52745054.051198-.66718798-.1761759-.13973743-.2273739-.07626999-.5244122.14418798-.6748241l.39-.254-1.229.709c-.23229375.1351768-.52989283.0625367-.67378421-.164462-.14389139-.2269988-.08259275-.5271392.13878421-.679538l4.18-2.886-5.386 3.109c-.228997.1275142-.51759652.0565488-.66134519-.1626219-.14374868-.2191708-.09385043-.5121485.11434519-.6713781l5.537-4.105-6.9 3.982c-.22885881.1292299-.51870095.0592157-.66333262-.1602346-.14463167-.2194502-.09467421-.513414.11433262-.6727654l4.383-3.272-5.2 3c-.22431645.1264895-.50801831.0619132-.65548892-.1492026s-.11047019-.4997121.08548892-.6667974l4.1-3.411-4.381 2.529c-.22197649.128183-.50493512.0677387-.65516368-.1399529-.15022856-.2076917-.11906179-.4953507.07216368-.6660471l1.344-1.2c-.18962139.0104315-.36928061-.0855667-.466-.249-.13823272-.2388784-.05677133-.5445824.182-.683l3.813-2.202c.22197649-.128183.50493512-.0677387.65516368.1399529.15022856.2076917.11906179.4953507-.07216368.6660471l-1.161 1.035 5.225-3.015c.2243164-.1264895.5080183-.0619132.6554889.1492026s.1104702.4997121-.0854889.6667974l-4.1 3.41 7.5-4.328c.2286618-.1265879.5162385-.0557088.6598832.1626417.1436447.2183504.0948861.5104922-.1118832.6703583l-4.375 3.273 7.108-4.1c.2292016-.1303039.5201978-.0602449.6649792.1600976s.0935911.5152436-.1169792.6739024l-5.54 4.106 8.558-4.94c.2322938-.1351768.5298928-.0625367.6737842.164462.1438914.2269988.0825928.5271392-.1387842.679538l-4.179 2.881 6.459-3.728c.2347034-.1364868.5354374-.0607325.6774741.1706544.1420368.2313868.073465.5338394-.1544741.6813456l-.385.25 1.6-.925c.2313261-.1333882.5266402-.061466.670727.1633522.1440867.2248181.0860887.5231794-.131727.6776478l-6.21 4.394 8.119-4.687c.233204-.1287421.5263939-.0520483.6666872.1743946.1402933.226443.0784231.5231151-.1406872.6746054l-1.864 1.233 2.831-1.634c.228997-.1275142.5175965-.0565488.6613452.1626219.1437487.2191708.0938504.5121485-.1143452.6713781l-6.743 5.011 8.479-4.894c.2333681-.1382671.5344194-.0652417.6785003.1645824.144081.2298241.078635.5326135-.1475003.6824176l-2.3 1.559 2.9-1.675c.228997-.1275142.5175965-.0565488.6613452.1626219.1437487.2191708.0938504.5121485-.1143452.6713781l-4.312 3.2 4.972-2.87c.2313261-.1333882.5266402-.061466.670727.1633522.1440867.2248181.0860887.5231794-.131727.6776478l-.932.659.823-.474c.2190652-.1318893.5023394-.0772423.6566242.1266708s.1298566.4913741-.0566242.6663292l-1.771 1.707.269-.155c.23893-.1358451.5427102-.0533708.6801373.1846528.137427.2380237.0569695.5423443-.1801373.6813472l-3.806 2.2c-.2190652.1318893-.5023394.0772423-.6566242-.1266708s-.1298566-.4913741.0566242-.6663292l1.77-1.707-6.638 3.832c-.2313261.1333882-.5266402.061466-.670727-.1633522-.1440867-.2248181-.0860887-.5231794.131727-.6776478l.94-.665-3.134 1.814c-.2292016.1303039-.5201978.0602449-.6649792-.1600976s-.0935911-.5152436.1169792-.6739024l4.31-3.2-7.273 4.2c-.0760934.0434562-.1623766.0658899-.25.065z" fill="#f28f02"/><g fill="#fcc10a"><path id="Path" d="m18.4 15.417c-.2090383-.0000532-.3959807-.1301413-.4686699-.3261344-.0726891-.1959931-.0157811-.4165194.1426699-.5528656l2.328-2-4.311 2.489c-.2290632.1321979-.5214568.063148-.6671806-.1575572-.1457237-.2207053-.094369-.5167199.1171806-.6754428l2.342-1.75-3.293 1.9c-.2263606.1309251-.5153721.0653166-.6630162-.1505114-.1476442-.2158279-.1040467-.5089685.1000162-.6724886l5.058-4.047-6.065 3.5c-.2322938.1351768-.5298928.0625367-.6737842-.164462-.1438914-.2269988-.0825928-.5271392.1387842-.679538l1.393-.965-1.561.9c-.230817.1267753-.5204005.0527915-.6621232-.1691615-.1417226-.221953-.0869993-.5157856.1251232-.6718385l2.04-1.431-2.01 1.16c-.2333403.1477362-.5422638.0783403-.69-.155-.1477361-.2333403-.0783403-.5422638.155-.69l.823-.566-.621.358c-.23158.1294027-.5239091.05542235-.6660571-.16856044-.142148-.2239828-.0846277-.51999085.1310571-.67443956l.343-.237c-.2280425.10346299-.4974532.02227245-.6303548-.18996591-.1329017-.21223837-.0883009-.49005987.1043548-.65003409l4.011-3.321-3.213 1.855c-.2180963.12577812-.4956948.06977641-.6479698-.13071911-.1522751-.20049552-.1317242-.48293973.0479698-.65928089l2.177-2.134c-.2384988.04005603-.4714801-.09632451-.5533174-.32389612-.0818373-.2275716.0109301-.48109503.2203174-.60210388l3.164-1.826c.2180963-.12577811.4956948-.06977641.6479698.13071911.1522751.20049552.1317242.48293973-.0479698.65928089l-2.087 2.045 4.941-2.852c.2248836-.12756093.509928-.06263942.65739.14972673.1474621.21236615.1087026.50212944-.08939.66827327l-4.009 3.319 5.553-3.206c.2319831-.1309881.5259285-.05707946.6683699.16805269.1424414.22513216.0833463.52241-.1343699.67594731l-.323.223.67-.386c.2319831-.1309881.5259285-.05707946.6683699.16805269.1424414.22513216.0833463.52241-.1343699.67594731l-.823.568 1.028-.594c.2314518-.13131281.5252013-.05833565.6682918.16602591.1430904.22436156.0853808.52148787-.1312918.67597409l-2.039 1.43 2.2-1.272c.2322938-.13517681.5298928-.06253672.6737842.16446202s.0825928.52713916-.1387842.67953798l-1.394.966 1.3-.753c.2262036-.12844093.5131028-.06198425.6597948.15283334.1466919.21481759.1041677.50622684-.0977948.67016666l-5.052 4.047 4.888-2.822c.2290632-.13219788.5214568-.06314799.6671806.15755725.1457237.22070523.094369.51671981-.1171806.67544275l-2.338 1.749 1.628-.938c.2234669-.12872313.5081764-.06636914.6573848.14397333.1492085.21034247.1139612.49966082-.0813848.66802667l-2.328 2 .775-.446c.2374252-.1242009.5305531-.0391619.6646466.1928199.1340935.2319817.0614797.5284321-.1646466.6721801l-5.4 3.118c-.0760345.0448136-.1627424.0683041-.251.068z"/><path id="Path" d="m20.961 53.361c-.2031097-.0000296-.3860195-.122924-.4628124-.310957s-.0322079-.4038366.1128124-.546043l1.173-1.147-2.153 1.243c-.2222396.1285782-.5057439.0679309-.6559297-.1403165-.1501859-.2082474-.1182322-.4963997.0739297-.6666835l1.923-1.71-2.321 1.34c-.2262036.1284409-.5131028.0619842-.6597948-.1528333-.1466919-.2148176-.1041677-.5062269.0977948-.6701667l1.389-1.11-1.153.665c-.2374252.1242009-.5305531.0391619-.6646466-.1928199-.1340935-.2319817-.0614797-.5284321.1646466-.6721801l6.9-3.981c.2262036-.1284409.5131028-.0619842.6597948.1528333.1466919.2148176.1041677.5062269-.0977948.6701667l-1.389 1.11.827-.477c.2218647-.1262356.5031961-.0650788.6526317.1418714.1494355.2069502.1189881.4932377-.0706317.6641286l-1.925 1.711 1.343-.774c.2180963-.1257781.4956948-.0697764.6479698.1307191.1522751.2004955.1317242.4829397-.0479698.6592809l-1.17 1.143.331-.19c.1549945-.0985297.351531-.1041539.5119064-.0146489.1603754.0895049.2587712.2597296.2562855.4433739s-.1054527.3511436-.2681919.436275l-3.77 2.178c-.0772625.0452591-.1654689.0684349-.255.067z"/><path id="Path" d="m26.394 37.361c-.2064157.0002477-.391767-.1263742-.4665923-.3187506s-.0237427-.41096.1285923-.5502494l.205-.187-.806.465c-.1547852.0907422-.3463247.0915917-.5019087.0022259-.155584-.0893657-.2513568-.2552442-.2509624-.4346667.0003945-.1794226.0968957-.3448784.2528711-.4335592l4.766-2.751c.2203354-.1244491.4989119-.0646624.6487785.1392378.1498666.2039001.1237692.4876223-.0607785.6607622l-.489.446c.2202652.0133175.4057552.1694546.4564509.3842197.0506956.2147652-.045392.4373692-.2364509.5477803l-3.4 1.961c-.0745306.0441739-.1593681.0679698-.246.069z"/><path id="Path" d="m15.1 53.349c-.2165102.0030603-.4103862-.1335905-.4802925-.3385275-.0699063-.2049369.0000454-.4315822.1732925-.5614725l4.053-3.14-5.979 3.452c-.2328603.1351428-.5309189.0616362-.6742423-.1662803-.1433233-.2279164-.080443-.5283964.1422423-.6797197l1.576-1.079-1.911 1.105c-.2290632.1321979-.5214568.063148-.6671806-.1575572-.1457237-.2207053-.094369-.5167199.1171806-.6754428l6.495-4.861-6.635 3.832c-.2328603.1351428-.5309189.0616362-.6742423-.1662803-.1433233-.2279164-.080443-.5283964.1422423-.6797197l2.837-1.933-2.335 1.347c-.2327769.1270897-.524286.0503218-.6642741-.174934-.139988-.2252559-.0797468-.5206233.1372741-.673066l.985-.656-.458.263c-.232368.1256461-.5223842.0488566-.6621282-.1753162-.1397441-.2241727-.0809951-.5183743.1341282-.6716838l1.579-1.06-1.051.606c-.2321092.1290838-.5246372.0541763-.6661393-.170578-.1415021-.2247542-.0825963-.5209195.1341393-.674422l8.068-5.514-7.536 4.354c-.2318603.1330617-.527371.0602043-.6708066-.1653857-.1434357-.22559-.0840493-.5240996.1348066-.6776143l9.388-6.557-8.852 5.112c-.2325262.1307666-.5267591.0559509-.6685809-.1700024s-.0812744-.5234503.1375809-.6759976l7.851-5.346-7.32 4.223c-.2340569.1357068-.5336008.0606207-.6759704-.1694442s-.0759129-.5316408.1499704-.6805558l5.28-3.5-4.754 2.75c-.2327682.1379387-.5330334.0656905-.677577-.1630348s-.0809181-.5309351.143577-.6819652l8.619-5.938-10.247 5.916c-.23296731.1327691-.52919188.0581284-.67142871-.1691822-.14223683-.2273105-.07984054-.5263539.14142871-.6778178l9.329-6.3-10.81 6.24c-.23470337.1364868-.53543738.0607325-.67747413-.1706544-.14203676-.2313868-.07346495-.5338394.15447413-.6813456l7.628-4.981-7.79 4.5c-.2352733.1446986-.54330136.0712733-.68799996-.164-.14469859-.2352733-.07127331-.5433014.16399996-.688l7.6-4.954-7.218 4.16c-.23223773.1273115-.52346332.0514462-.66406897-.1729923-.14060566-.2244384-.08181009-.5195841.13406897-.6730077l10.633-7.2-10.1 5.832c-.23308287.1306613-.52770735.0549657-.66894229-.1718661-.14123493-.2268319-.07915925-.5246238.14094229-.6761339l8.336-5.576-7.811 4.502c-.23252618.1307666-.52675914.0559509-.6685809-.1700024-.14182177-.2259533-.08127436-.5234503.1375809-.6759976l7.953-5.4-7.422 4.285c-.23120434.1356861-.52827755.0648879-.67343292-.160492-.14515538-.2253799-.0867349-.525133.13243292-.679508l8.171-5.835-7.631 4.405c-.22819429.1273484-.51596639.0574929-.66037808-.1603041-.14441168-.2177969-.09674814-.5100652.10937808-.6706959l6.381-4.839-5.74 3.314c-.2295527.1314921-.52180501.0614183-.6667704-.1598726-.14496539-.2212908-.0924688-.5172061.1197704-.6751274l2.69-1.982-1.812 1.05c-.21842027.1276802-.49779411.0720852-.65069351-.1294872-.15289941-.2015724-.13113426-.4855915.05069351-.6615128l2.541-2.466c-.24320802.0734899-.50286265-.0470974-.60362382-.2803314-.10076116-.233234-.01058945-.5049523.20962382-.6316686l3.343-1.931c.2184203-.1276802.4977941-.0720852.6506935.1294872s.1311343.4855915-.0506935.6615128l-2.5 2.427 6.1-3.518c.2295527-.1314921.521805-.0614183.6667704.1598726.1449654.2212908.0924688.5172061-.1197704.6751274l-2.692 1.983 4.876-2.818c.2281943-.1273484.5159664-.0574929.6603781.1603041.1444117.2177969.0967481.5100652-.1093781.6706959l-6.382 4.837 9.678-5.587c.2312043-.1356861.5282776-.0648879.6734329.160492.1451554.2253799.0867349.525133-.1324329.679508l-8.167 5.832 10.33-5.964c.2328603-.1351428.5309189-.0616362.6742423.1662803.1433233.2279164.080443.5283964-.1422423.6797197l-7.954 5.4 9.058-5.23c.2340027-.1389988.5362016-.0652981.6799386.1658244s.0762078.5347601-.1519386.6831756l-8.336 5.577 9.021-5.208c.2329673-.1327691.5291919-.0581284.6714287.1691822.1422368.2273105.0798406.5263539-.1414287.6778178l-10.631 7.2 11.114-6.416c.2337734-.1287456.5274505-.051198.667188.1761759.1397374.2273739.07627.5244122-.144188.6748241l-7.6 4.959 7.613-4.394c.2337734-.1287456.5274505-.051198.667188.1761759.1397374.2273739.07627.5244122-.144188.6748241l-7.631 4.984 7.324-4.228c.2329673-.1327691.5291919-.0581284.6714287.1691822.1422368.2273105.0798406.5263539-.1414287.6778178l-9.322 6.3 8.83-5.1c.2327682-.1379387.5330334-.0656905.677577.1630348s.0809181.5309351-.143577.6819652l-8.617 5.937 8.083-4.667c.2340569-.1357068.5336008-.0606207.6759704.1694442s.0759129.5316408-.1499704.6805558l-5.294 3.5 4.769-2.753c.2325262-.1307666.5267591-.0559509.6685809.1700024s.0812744.5234503-.1375809.6759976l-7.845 5.348 7.31-4.219c.2318603-.1330617.527371-.0602043.6708066.1653857.1434357.22559.0840493.5240996-.1348066.6776143l-9.388 6.552 8.852-5.11c.2328603-.1351428.5309189-.0616362.6742423.1662803.1433233.2279164.080443.5283964-.1422423.6797197l-8.071 5.515 2.538-1.465c.2330829-.1306613.5277074-.0549657.6689423.1718661.1412349.2268319.0791592.5246238-.1409423.6761339l-1.579 1.06 1.051-.607c.2335451-.1328438.5303244-.0573638.6720248.1709163s.0776546.5277351-.1450248.6780837l-.985.658.458-.264c.2325262-.1307666.5267591-.0559509.6685809.1700024s.0812744.5234503-.1375809.6759976l-2.839 1.935 2.309-1.332c.2288824-.1321893.5211118-.0634037.667.157.1461203.2207724.0948193.5171787-.117.676l-6.492 4.857 5.942-3.43c.2328603-.1351428.5309189-.0616362.6742423.1662803.1433233.2279164.080443.5283964-.1422423.6797197l-1.59 1.088 1.058-.61c.2275891-.1298897.5168511-.062032.6629348.1555172.1460838.2175492.0994243.5109773-.1069348.6724828l-7.647 5.923c.0660643.2220996-.0291264.4604902-.23.576l-2.052 1.185c-.0751953.0442071-.1607733.067672-.248.068z"/></g><path id="Shape" d="m26.05 47.351c.394-3.25-.121-7.12-.279-9.9 1.3414794-.0311167 2.6525691-.4057137 3.808-1.088 1.95-1.848 1.148-6.049 1.148-8.432 0-3.333.5-7.1-1.6-9.952-2.192-2.968-5.247-3.363-8.518-3.415 2.9392941-.978775 4.9725293-3.6663025 5.115-6.761-.518-9.621-15.462-8.988-15.448.388-.1696177 3.0009968 1.7555174 5.7215668 4.642 6.56-5.414.577-9.549 2.726-9.645 9.868-.048 3.616-1.249 15.1 4.98 12.484-.116 2.731-.724 6.932-.319 10.405-3.42.65-10.121 2.206-9.609 6.01.779 5.786 14.229 5.811 18.126 5.738 4.768-.089 11.827-.491 15.688-3.85 5.288-4.598-4.475-7.32-8.089-8.055zm-14.326-39.545c.005723-1.21832929.3319831-2.41369667.946-3.466 1.069-1.818 1.53-1.652 3.766-2.24 2.211-.585 2.2-.9 3.8-.176 2.4390271 1.1426091 4.0094256 3.579796 4.042 6.273-.0333145 1.43931083-.5015093 2.834831-1.343 4.003-1.028 1.407-1.161 1.117-3.371 1.7-2.1.554-2.7.893-4.415-.106-2.1141903-1.2558532-3.4143585-3.5289647-3.425-5.988zm-5 16.019c.106-4.415 1.939-7.759 7.134-8.384 1.7402024-.1010009 3.4847976-.1010009 5.225 0 6.194 0 10.074 2.774 10.187 9.181.037 2.1 0 4.212 0 6.316.0739895.7438312.0739895 1.4931688 0 2.237v.8c.032 1.418-1.143 2.143-3.525 2.175.0045801-.0809709-.0251916-.1601202-.082-.218-1.467-1.613-.935-4.489-.935-6.513v-5.486c0-.709-1.462-.458-1.462.134v6.433c0 2.022-.4 4.336 1.007 5.966.035 1.949.713 7.156.235 11.136-.159.092-.235.173-.11.2l.085.015c-.325 2.458-1.117 4.4-2.811 4.732-1.6595572-.1488133-2.9346317-1.5338229-2.946-3.2v-15.423c0-.68-1.458-.412-1.458.148v15.5.007c.0486225 1.4806598-1.0317451 2.7576544-2.5 2.955-1.971-.5-2.87-2.546-3.232-5.079.12-.1.136-.183-.029-.2-.513-3.94.212-8.951.212-11.1 0-.01 0-.015-.006-.025 1.4-1.617 1-3.881 1-5.891v-6.435c0-.316-1.449-.086-1.449.388v5.483c0 1.941.47 4.664-.756 6.326-4.755 2.886-3.808-10.935-3.781-12.178zm10.825 34.881c-4.087-.082-9.458-.438-13.064-2.661-6.252-3.855.53-6.983 5.507-8.095.4 2.74 1.491 4.946 4.071 5.468.0332496.0033417.0667504.0033417.1 0 .0830903.0151503.1676277.0208532.252.017 1.3754691-.0477904 2.6599615-.6993657 3.511-1.781.7061754 1.0176844 1.8337641 1.6624932 3.069 1.755.1346731.0484588.2803784.0574787.42.026 2.835-.459 4.066-2.625 4.535-5.361 2.993.552 7.53 1.605 8.21 4.4 1.463 6.045-12.95 6.305-16.611 6.232z" fill="#262626"/></g></svg>