<svg height="506pt" viewBox="0 -1 506.98353 506" width="506pt" xmlns="http://www.w3.org/2000/svg"><path d="m314.808594 502.46875c-1.871094 0-3.523438-1.21875-4.078125-3.007812-.550781-1.789063.125-3.730469 1.671875-4.785157l17.996094-12.304687-16.210938 9.386718c-1.976562 1.140626-4.496094.523438-5.722656-1.394531-1.230469-1.917969-.738282-4.464843 1.121094-5.78125l36.515624-25.890625-34.988281 20.191406c-1.972656 1.089844-4.453125.460938-5.664062-1.441406-1.210938-1.902344-.734375-4.417968 1.089843-5.746094l30.527344-21.28125-28.777344 16.605469c-1.953124 1.113281-4.4375.515625-5.671874-1.367187-1.238282-1.878906-.800782-4.394532.996093-5.75l53.164063-39.398438-52.371094 30.234375c-1.980469 1.152344-4.519531.535157-5.75-1.402343-1.226562-1.9375-.703125-4.5 1.1875-5.800782l30.324219-21.015625-28.558594 16.496094c-1.988281 1.175781-4.550781.558594-5.78125-1.394531-1.234375-1.949219-.691406-4.527344 1.222656-5.816406l27.164063-18.664063-25.304688 14.601563c-1.984375 1.097656-4.480468.453124-5.683594-1.472657-1.203124-1.925781-.6875-4.453125 1.171876-5.753906l14.097656-9.5-11.949219 6.886719c-1.96875 1.125-4.476563.507812-5.703125-1.398438-1.226562-1.910156-.746094-4.441406 1.097656-5.769531l46.480469-33.1875-45.226563 26.140625c-1.980468 1.304688-4.648437.753906-5.953124-1.226562-1.304688-1.980469-.757813-4.644532 1.226562-5.953126l57.804688-42.382812-57.054688 32.996094c-1.996094 1.101562-4.5.4375-5.695312-1.5-1.191407-1.941406-.648438-4.476563 1.230468-5.761719l2.511719-1.636719-.15625.085938c-1.976563 1.074218-4.449219.425781-5.648437-1.480469-1.199219-1.90625-.707032-4.414063 1.117187-5.730469l64.113281-43.707031-63.035156 36.394531c-1.992188 1.113282-4.503906.46875-5.710938-1.46875-1.203124-1.933594-.675781-4.476562 1.203126-5.769531l79.890624-53.503906-78.996093 45.601562c-1.996094 1.136719-4.535157.488281-5.738281-1.46875-1.207032-1.957031-.644532-4.519531 1.269531-5.792969l92.253906-60.730468-91.417969 52.796875c-2.003906 1.054687-4.484375.363281-5.648437-1.578125-1.167969-1.941406-.613281-4.457032 1.261719-5.726563l17.585937-10.992187-15.425781 8.910156c-1.304688.789062-2.929688.824219-4.269532.09375-1.335937-.734375-2.179687-2.125-2.210937-3.648438-.035156-1.523437.746094-2.953124 2.050781-3.742187l57.957032-36.863281-56.320313 32.511718c-1.996094 1.183594-4.574219.554688-5.800781-1.414062-1.226563-1.972656-.648438-4.566406 1.296875-5.832031l102.050781-68.105469-101.546875 58.625c-2.019531 1.21875-4.640625.570312-5.859375-1.445312-1.21875-2.015626-.570312-4.640626 1.445312-5.859376l10.335938-6.5-8.097656 4.675782c-2.003906 1.117187-4.535156.453125-5.730469-1.507813-1.191406-1.964843-.617187-4.519531 1.300781-5.78125l21.734375-13.816406-19.652343 11.332031c-2 1.25-4.628907.644532-5.878907-1.355468-1.25-1.996094-.640625-4.628907 1.355469-5.878907l68.976562-46.480469-67.867187 39.210938c-1.992187 1.152344-4.539063.519531-5.757813-1.433594s-.667968-4.523437 1.246094-5.804687l53.160156-35.839844-51.789062 29.867187c-1.96875 1.125-4.476562.507813-5.703125-1.398437-1.226563-1.910156-.746094-4.441406 1.097656-5.769531l62.359375-44.507813-61.652344 35.589844c-1.945312.921875-4.273437.253906-5.425781-1.5625-1.15625-1.816406-.78125-4.207031.878907-5.578125l42.664062-29.960938-41.285156 23.824219c-1.964844 1.113281-4.457032.496094-5.683594-1.402343-1.222656-1.898438-.753906-4.421876 1.070312-5.757813l45.769532-32.691406-44.535156 25.710937c-1.976563 1.15625-4.511719.542969-5.746094-1.386718-1.234375-1.929688-.722656-4.488282 1.15625-5.796876l38.527344-27.152343-36.992188 21.332031c-1.972656 1.066406-4.4375.417969-5.632812-1.480469-1.195313-1.898437-.71875-4.398437 1.09375-5.722656l24.183593-16.570313-22.253906 12.800782c-1.960937 1.136718-4.46875.539062-5.710937-1.359375-1.234376-1.894531-.777344-4.425781 1.042968-5.765625l50.902344-37.367188-49.980469 28.839844c-1.953125 1.121094-4.4375.53125-5.679687-1.34375-1.242188-1.875-.8125-4.394531.976562-5.753906l54.785156-41.285156-54.179687 31.273437c-1.96875 1.109375-4.464844.484375-5.683594-1.417969-1.21875-1.90625-.738281-4.429687 1.09375-5.757812l33.167969-23.390625-31.519531 18.195312c-1.949219 1.109375-4.425781.519531-5.667969-1.347656-1.238281-1.867187-.820312-4.378906.957031-5.746094l52.90625-40.105469-52.292969 30.140626c-1.96875 1.082031-4.441406.449218-5.648437-1.445313-1.210937-1.894531-.742187-4.398437 1.066406-5.730469l28.664063-20.15625-26.898438 15.53125c-1.972656 1.105469-4.464844.484375-5.683594-1.421875s-.738281-4.429687 1.09375-5.757812l29.011719-20.476563-27.238281 15.734375c-1.957031 1.136719-4.464844.550781-5.707031-1.34375-1.246094-1.890625-.796875-4.425781 1.023437-5.773437l44.320313-33-43.253907 24.96875c-1.9375 1.082031-4.378906.496094-5.617187-1.34375-1.238281-1.84375-.859375-4.324219.871094-5.710938l43.828125-34.132812-42.980469 24.832031c-1.902344 1.089844-4.324219.558594-5.597656-1.226563-1.273438-1.78125-.984375-4.242187.664062-5.6875l24.414063-21.238281-23.039063 13.292969c-1.796875 1.042969-4.078125.640625-5.410156-.949219-1.335937-1.589843-1.332031-3.90625.007813-5.492187l8.992187-10.683594-6.75 3.890625c-1.503906.871094-3.386719.738281-4.757813-.328125-1.371093-1.070312-1.953124-2.863281-1.476562-4.535156l.988281-3.492188c-1.695312-.410156-2.964843-1.816406-3.210937-3.542968-.246094-1.722657.582031-3.425782 2.09375-4.296876l5.496094-3.167968c1.503906-.867188 3.386718-.738282 4.757812.332031 1.371094 1.066406 1.957031 2.863281 1.480469 4.535156l-.53125 1.851563 18.679687-10.777344c1.792969-1.03125 4.066406-.628906 5.394532.953125 1.332031 1.582031 1.332031 3.894531.007812 5.480469l-8.996094 10.691406 40.3125-23.246094c1.898438-1.070312 4.300782-.535156 5.566406 1.238282 1.269532 1.773437.992188 4.214843-.632812 5.667968l-24.421875 21.253906 58.273437-33.664062c1.9375-1.078125 4.378907-.492188 5.617188 1.347656s.859375 4.324219-.875 5.710938l-43.824219 34.132812 53.007813-30.59375c1.957031-1.136718 4.464844-.546875 5.710937 1.34375 1.242188 1.890625.792969 4.425782-1.027343 5.773438l-44.3125 33.015625 45.0625-26.015625c1.972656-1.109375 4.46875-.484375 5.6875 1.417968 1.21875 1.90625.738281 4.429688-1.09375 5.757813l-29.015626 20.480469 28.628907-16.574219c1.972656-1.082031 4.441406-.449219 5.652343 1.445313 1.207032 1.894531.742188 4.402343-1.066406 5.734374l-28.664062 20.164063 28.261718-16.316406c1.945313-1.085938 4.402344-.492188 5.636719 1.367187 1.230469 1.859375.824219 4.351563-.933593 5.722656l-52.910157 40.105469 54.230469-31.308593c1.972656-1.105469 4.464844-.484376 5.683594 1.421874s.738281 4.429688-1.09375 5.757813l-33.203125 23.414063 32.992187-19.019532c1.949219-1.121094 4.4375-.53125 5.675782 1.34375 1.242187 1.875.816406 4.394532-.972657 5.753906l-54.777343 41.285157 56.125-32.425781c1.957031-1.125 4.453124-.527344 5.6875 1.363281 1.238281 1.886719.789062 4.414062-1.019532 5.761719l-50.929687 37.496093 51.832031-29.917969c1.980469-1.101562 4.476562-.464843 5.683594 1.453126 1.207031 1.917968.707031 4.445312-1.144532 5.757812l-24.242187 16.605469 23.507813-13.570313c1.996093-1.285156 4.652343-.707031 5.9375 1.285156 1.285156 1.992188.707031 4.652344-1.285157 5.933594l-38.460937 27.050782 38.402344-22.183594c1.972656-1.160156 4.507812-.554688 5.746093 1.367187s.738281 4.480469-1.128906 5.800781l-45.773437 32.679688 48.355468-27.910156c1.976563-1.121094 4.484375-.5 5.703125 1.414062 1.222657 1.917969.730469 4.453125-1.117187 5.769532l-42.667969 29.96875 54.75-31.574219c1.96875-1.121094 4.476563-.507813 5.703125 1.398437 1.226562 1.910156.746094 4.445313-1.09375 5.769532l-62.398438 44.535156 81.460938-47.023438c1.292969-.808594 2.917969-.867187 4.261719-.152344 1.347656.714844 2.210937 2.097657 2.261719 3.621094.054687 1.523438-.707032 2.957032-2 3.765625l-53.179688 35.839844 67.984375-39.253906c1.992187-1.152344 4.539063-.519531 5.757813 1.433593 1.21875 1.953126.667968 4.523438-1.246094 5.804688l-68.972656 46.480469 85.757812-49.492188c1.304688-.792969 2.929688-.828125 4.269531-.09375 1.335938.730469 2.179688 2.121094 2.210938 3.644531.035156 1.527344-.746094 2.953126-2.050781 3.742188l-21.707032 13.695312 31.570313-18.234374c2.003906-1.070313 4.492187-.382813 5.664062 1.558593 1.175781 1.945313.621094 4.464844-1.257812 5.738281l-10.351563 6.511719 19.335938-11.164062c1.992187-1.132813 4.523437-.488281 5.734375 1.460937 1.210937 1.945313.664062 4.503906-1.238281 5.785156l-102.023438 68.105469 114.347656-66.03125c2-1.085937 4.5-.40625 5.679688 1.539063 1.179687 1.945312.625 4.472656-1.261719 5.746094l-57.921875 36.855468 56.574219-32.628906c2.007812-1.085938 4.511719-.402344 5.6875 1.550781 1.175781 1.957031.609375 4.488281-1.292969 5.753907l-17.5625 10.964843 4.660156-2.679687c1.996094-1.117188 4.511719-.460938 5.714844 1.480468 1.199219 1.945313.65625 4.488282-1.234375 5.773438l-92.304687 60.738281 63.742187-36.792969c1.992187-1.117187 4.503906-.46875 5.710937 1.464844 1.203126 1.9375.675782 4.476563-1.203124 5.769532l-79.871094 53.496093 51.410156-29.679687c1.980469-1.074219 4.453125-.425782 5.652344 1.480468 1.195312 1.90625.707031 4.414063-1.121094 5.730469l-64.160156 43.707031 36.691406-21.1875c2.003906-1.164062 4.570312-.519531 5.78125 1.457032 1.214844 1.972656.628906 4.554687-1.316406 5.8125l-11.519532 7.511718c1.820313.03125 3.421876 1.21875 3.984376 2.953126.558593 1.734374-.042969 3.632812-1.503907 4.726562l-57.777343 42.445312 54.261718-31.328124c1.96875-1.109376 4.460938-.496094 5.6875 1.402343 1.222656 1.898438.753906 4.425781-1.070312 5.757813l-46.480469 33.175781 43.785156-25.273437c1.992188-1.15625 4.539063-.519532 5.757813 1.433593s.667968 4.519531-1.242188 5.800781l-14.234375 9.558594 11.042969-6.367187c1.984375-1.175781 4.546875-.558594 5.78125 1.394531 1.234375 1.949219.691406 4.527344-1.226562 5.816406l-27.074219 18.59375 24.070312-13.90625c1.984375-1.15625 4.523438-.535156 5.75 1.402344 1.226563 1.9375.703125 4.496094-1.183593 5.796875l-30.335938 21.019531 27.304688-15.789062c1.957031-1.109375 4.441406-.511719 5.675781 1.367187 1.234375 1.882813.796875 4.398438-1 5.75l-53.144531 39.425781 50.707031-29.261718c1.976562-1.136719 4.5-.511719 5.722656 1.410156 1.222656 1.925781.71875 4.472656-1.148437 5.785156l-30.535157 21.246094 27.488281-15.871094c1.972657-1.136718 4.492188-.523437 5.722657 1.394532 1.230469 1.917968.734375 4.464843-1.125 5.78125l-36.480469 25.875 33.605469-19.398438c1.988281-1.152344 4.53125-.523438 5.753906 1.417969 1.222656 1.945312.6875 4.511719-1.214844 5.800781l-18.039062 12.339844 14.890625-8.59375c1.953125-1.101563 4.425781-.503906 5.660156 1.367187 1.234375 1.875.808594 4.382813-.976562 5.742188l-20.683594 15.4375 17.578125-10.171875c1.847656-1.066406 4.199219-.605469 5.503906 1.082031 1.308594 1.683594 1.167969 4.074219-.324219 5.597656l-16.765625 17.121094 13.292969-7.683594c1.324219-.839843 3-.886719 4.367188-.125 1.371093.765625 2.210937 2.21875 2.1875 3.785157-.019532 1.566406-.898438 2.996093-2.289063 3.722656l-40.242187 23.238281c-1.84375 1.050781-4.179688.585937-5.484376-1.09375-1.300781-1.675781-1.171874-4.054687.304688-5.582031l16.769531-17.125-53.4375 30.839844c-1.953125 1.101562-4.425781.503906-5.660156-1.367188-1.234375-1.875-.808594-4.382812.976563-5.742188l20.683593-15.4375-48.546875 28.074219c-.644531.378907-1.382812.574219-2.132812.574219zm0 0" fill="#f1a85a"/><path d="m103.949219 501.886719c-1.871094.003906-3.527344-1.214844-4.082031-3.003907-.554688-1.789062.121093-3.730468 1.667968-4.785156l18.117188-12.398437-19.082032 11.015625c-1.941406 1.109375-4.410156.527344-5.65625-1.328125-1.246093-1.855469-.847656-4.359375.914063-5.738281l36.359375-28.117188-31.179688 18.003906c-1.925781 1.121094-4.386718.570313-5.65625-1.261718-1.265624-1.832032-.910156-4.328126.816407-5.734376l20.070312-16.433593-14.855469 8.574219c-1.769531 1.023437-4.011718.652343-5.355468-.886719-1.34375-1.542969-1.40625-3.816407-.148438-5.425781l13.566406-17.445313-7.578124 4.371094c-1.515626.867187-3.410157.722656-4.777344-.367188-1.367188-1.085937-1.933594-2.902343-1.425782-4.574219l2.363282-7.730468c-1.359375-.734375-2.214844-2.148438-2.234375-3.695313-.023438-1.546875.792969-2.984375 2.132812-3.753906l4.351563-2.511719c1.527344-.859375 3.421875-.714844 4.796875.367188 1.367187 1.09375 1.929687 2.910156 1.417969 4.582031l-1.496094 4.875 17.066406-9.863281c1.765625-1.007813 3.996094-.628906 5.328125.902344 1.335937 1.53125 1.40625 3.792968.167969 5.402343l-13.566406 17.457031 41.285156-23.824218c1.917968-1.074219 4.339844-.511719 5.59375 1.296875 1.25 1.8125.917968 4.277343-.765625 5.691406l-20.0625 16.4375 40.671875-23.476563c1.941406-1.109374 4.410156-.527343 5.65625 1.328126 1.246094 1.855468.847656 4.359374-.914063 5.738281l-36.332031 28.109375 61.027344-35.234375c1.988281-1.152344 4.53125-.527344 5.753906 1.417969 1.222656 1.945312.6875 4.507812-1.214844 5.800781l-18.097656 12.375 34.023438-19.628907c1.980468-1.117187 4.488281-.488281 5.703124 1.433594 1.214844 1.921875.710938 4.457032-1.148437 5.769532l-15.164063 10.46875 19.824219-11.417969c1.902344-1.074219 4.3125-.539063 5.582031 1.246093 1.265626 1.78125.976563 4.234376-.667968 5.675782l-31.339844 26.957031 24.105469-13.917969c1.324219-.839844 3-.890625 4.367187-.125 1.371094.765625 2.210938 2.214844 2.1875 3.785156-.019531 1.566407-.898437 2.996094-2.289062 3.722657l-63.597656 36.65625c-1.90625 1.101562-4.335938.566406-5.609376-1.226563-1.273437-1.796875-.972656-4.265625.695313-5.699218l31.351563-26.957032-72.175782 41.699219c-1.980468 1.121094-4.488281.488281-5.703125-1.433594-1.214843-1.921875-.710937-4.457031 1.144531-5.765625l15.171876-10.472656-38.96875 22.496094c-.648438.375-1.386719.578125-2.136719.578125zm0 0" fill="#f1a85a"/><g fill="#fcd167"><path d="m299.714844 499.371094c-1.738282.003906-3.308594-1.050782-3.960938-2.660156-.65625-1.613282-.265625-3.460938.980469-4.671876l1.707031-1.707031-4.863281 2.800781c-1.855469 1.042969-4.195313.558594-5.484375-1.132812-1.289062-1.695312-1.132812-4.082031.363281-5.59375l9.523438-9.386719-15.144531 8.730469c-1.855469 1.03125-4.179688.542969-5.464844-1.140625-1.285156-1.6875-1.140625-4.058594.34375-5.574219l18.558594-18.527344-27.253907 15.738282c-1.9375 1.078125-4.378906.492187-5.617187-1.347656-1.238282-1.839844-.859375-4.324219.871094-5.710938l4.917968-3.832031-8.703125 5.027343c-1.917969 1.082032-4.34375.53125-5.601562-1.277343-1.261719-1.804688-.9375-4.273438.746093-5.695313l22.269532-18.484375-29.609375 17.070313c-1.945313 1.09375-4.402344.503906-5.640625-1.347656-1.238282-1.855469-.839844-4.351563.914062-5.726563l19.625-15.039063-25.601562 14.765626c-1.972656 1.15625-4.507813.550781-5.746094-1.371094s-.738281-4.480469 1.132812-5.796875l9.523438-6.828125-13.730469 7.910156c-1.96875 1.085938-4.4375.464844-5.652343-1.425781-1.214844-1.886719-.761719-4.394531 1.042968-5.734375l15.417969-10.980469-20.230469 11.765625c-1.960937 1.121094-4.453125.523438-5.691406-1.363281-1.234375-1.886719-.789062-4.414063 1.023438-5.761719l34.558593-25.488281-45.667969 26.367187c-2.027343 1.058594-4.527343.335938-5.671874-1.644531-1.144532-1.980469-.527344-4.507813 1.402343-5.734375l111.789063-64.53125c1.957031-1.121094 4.453125-.523438 5.6875 1.363281 1.238281 1.890625.789062 4.414063-1.019532 5.761719l-34.5625 25.480469 31.710938-18.304688c1.972656-1.121093 4.476562-.507812 5.703125 1.398438 1.226563 1.910156.746094 4.445312-1.09375 5.769531l-15.464844 11.007812 12.246094-7.0625c1.96875-1.136718 4.484375-.53125 5.71875 1.382813 1.234375 1.910156.75 4.457031-1.101563 5.785156l-9.488281 6.773438 6.1875-3.566407c1.941407-1.09375 4.398438-.507812 5.636719 1.347657 1.242188 1.855469.84375 4.347656-.910156 5.726562l-19.628906 15.035157 16.496093-9.523438c1.921875-1.105469 4.371094-.558594 5.636719 1.261719 1.265625 1.816406.925781 4.304687-.78125 5.71875l-22.273438 18.492187 19.246094-11.09375c1.9375-1.078125 4.378906-.496094 5.617188 1.347656 1.238281 1.839844.859375 4.324219-.875 5.710938l-4.878906 3.789062 1.40625-.804687c1.855468-1.070313 4.21875-.597656 5.519531 1.101563 1.304687 1.703124 1.144531 4.101562-.375 5.617187l-18.585938 18.507813 15.488281-8.945313c1.855469-1.042969 4.199219-.558594 5.488282 1.136719 1.289062 1.691406 1.132812 4.078125-.367188 5.589844l-9.53125 9.4375 5.972656-3.464844c1.863282-1.089844 4.25-.613282 5.554688 1.105468s1.117188 4.144532-.433594 5.644532l-2.558594 2.558594c1.707032-.203126 3.378907.613281 4.265626 2.09375 1.175781 2.039062.476562 4.648437-1.5625 5.828124l-27.375 15.800782c-.636719.359375-1.359376.539062-2.089844.53125zm0 0"/><path d="m93.128906 502.324219c-1.878906-.003907-3.535156-1.234375-4.078125-3.03125-.542969-1.800781.152344-3.742188 1.714844-4.785157l108.304687-72.226562-118.613281 68.46875c-2.011719 1.222656-4.636719.582031-5.859375-1.433594-1.222656-2.011718-.582031-4.636718 1.433594-5.859375l68.878906-43.941406-64.785156 37.410156c-2.019531 1.214844-4.644531.558594-5.855469-1.460937-1.214843-2.023438-.558593-4.644532 1.460938-5.859375l15.941406-9.949219-10.105469 5.828125c-2.007812 1.148437-4.566406.484375-5.765625-1.492187-1.199219-1.980469-.601562-4.554688 1.347657-5.804688l80.46875-51.265625-74.042969 42.734375c-2 1.097656-4.511719.429688-5.699219-1.519531s-.632812-4.488281 1.261719-5.761719l112.75-72.320312-105.992188 61.21875c-2.003906 1.101562-4.523437.429687-5.707031-1.53125-1.183594-1.957032-.613281-4.5 1.296875-5.765626l108.117187-68.425781-101.546874 58.613281c-2.007813 1.058594-4.496094.359376-5.65625-1.589843-1.160157-1.949219-.59375-4.46875 1.292968-5.730469l25.5-15.640625-19.628906 11.347656c-2.019531 1.214844-4.640625.566407-5.855469-1.453125-1.21875-2.019531-.566406-4.644531 1.453125-5.859375l110.933594-69.53125-104.472656 60.339844c-2.007813 1.058594-4.496094.359375-5.65625-1.589844s-.59375-4.46875 1.292968-5.730469l44.554688-27.445312-38.613281 22.289062c-2.007813 1.074219-4.503907.382813-5.671875-1.570312-1.167969-1.953125-.597656-4.480469 1.292968-5.742188l54.726563-33.84375-48.699219 28.152344c-1.996094 1.085938-4.492187.414063-5.675781-1.523437-1.1875-1.9375-.644531-4.464844 1.226563-5.746094l128.855468-83.3125-121.796875 70.316406c-1.992187 1.113281-4.511719.460938-5.710937-1.480469-1.203125-1.945312-.660156-4.488281 1.230468-5.773437l121.402344-79.949219-121.417968 70.078125c-2.003907 1.117188-4.535157.453125-5.730469-1.511719-1.191407-1.960937-.617188-4.515624 1.300781-5.777343l67.890625-43.332031-70.929687 40.960937c-1.992188 1.066406-4.472657.398437-5.652344-1.53125-1.183594-1.925781-.65625-4.441406 1.199218-5.730469l82.089844-53.429687-86.109375 49.683593c-2 1.070313-4.492187.382813-5.664062-1.558593-1.171875-1.945313-.617188-4.464844 1.261719-5.738281l26.53125-16.742188-28.160157 16.210938c-1.988281 1.058593-4.457031.386718-5.636719-1.53125-1.179687-1.917969-.667968-4.421876 1.171876-5.71875l72.449218-47.4375-76.210937 44.03125c-2 1.054687-4.472657.371093-5.644531-1.5625-1.171876-1.933594-.628907-4.445313 1.230468-5.726563l29.289063-18.585937-31.011719 17.921874c-2.007812 1.234376-4.636719.609376-5.871094-1.398437s-.609375-4.636719 1.398438-5.871094l71.84375-46.816406-75.484375 43.5625c-1.984375 1.074219-4.460938.417969-5.652344-1.496094-1.191406-1.910156-.691406-4.421875 1.144531-5.730469l99.839844-66.875-105.503906 60.910157c-2.011719 1.125-4.550782.453125-5.742188-1.519531-1.1875-1.972657-.597656-4.535157 1.335938-5.785157l10.695312-6.691406-11.820312 6.828125c-2 1.136719-4.535156.484375-5.742188-1.472656-1.203125-1.957032-.644531-4.515625 1.269532-5.789063l86.519531-56.652343-90.921875 52.472656c-1.90625 1.097656-4.335938.566406-5.609375-1.230469-1.273438-1.792969-.972657-4.261719.695312-5.699219l32.648438-28.101562-37.855469 21.855468c-1.921875 1.078126-4.351562.515626-5.601562-1.300781-1.25-1.816406-.914063-4.285156.78125-5.699219l6.03125-4.914062-5.929688 3.414062c-1.753906 1.015626-3.976562.65625-5.324219-.859374-1.347656-1.511719-1.441406-3.765626-.230469-5.386719l5.65625-7.585938c-1.605468.074219-3.125-.742187-3.949218-2.125-1.179688-2.042969-.480469-4.652343 1.5625-5.828125l15.359375-8.875c1.75-1.007812 3.96875-.648437 5.3125.859375 1.34375 1.511719 1.445312 3.753907.242187 5.378907l-4.992187 6.699218 34.371093-19.851562c1.929688-1.125 4.398438-.574219 5.667969 1.265625 1.265625 1.835937.902344 4.339843-.835937 5.742187l-6.042969 4.914063 30.773437-17.75c1.902344-1.074219 4.3125-.539063 5.578126 1.246093 1.265624 1.78125.980468 4.234376-.664063 5.675782l-32.605469 28.066406 183.3125-105.8125c1.996094-1.136719 4.535156-.484375 5.742188 1.472656 1.203125 1.957032.644531 4.515625-1.269532 5.789063l-86.539062 56.660156 87.210938-50.347656c2.011718-1.125 4.550781-.453125 5.742187 1.519531 1.1875 1.972656.597656 4.535156-1.339844 5.785156l-10.519531 6.582032 9.328125-5.378907c1.988281-1.113281 4.5-.46875 5.707031 1.46875 1.203125 1.933594.675782 4.476563-1.203125 5.769531l-99.839843 66.882813 101.289062-58.46875c2-1.136719 4.539062-.484375 5.742188 1.472656 1.207031 1.957031.644531 4.515625-1.269532 5.789063l-71.800781 46.796875 72.039063-41.59375c2-1.082031 4.5-.40625 5.683593 1.539062 1.179688 1.945313.625 4.476563-1.261719 5.75l-29.3125 18.59375 30.277344-17.476562c1.992188-1.097657 4.5-.4375 5.691406 1.503906 1.191407 1.941406.652344 4.476563-1.230468 5.757813l-72.53125 47.496093 84.238281-48.640625c2.007813-1.101562 4.523437-.425781 5.707031 1.53125 1.183594 1.960938.613282 4.503906-1.292968 5.765625l-26.558594 16.761719 36.695312-21.179688c1.992188-1.070312 4.472656-.398437 5.65625 1.527344 1.179688 1.925782.652344 4.441406-1.203125 5.734375l-82.003906 53.359375 97.988281-56.542968c1.304688-.792969 2.929688-.828126 4.265625-.09375 1.335938.734374 2.179688 2.125 2.214844 3.648437s-.75 2.949219-2.050781 3.742187l-67.945313 43.347657 81.589844-47.105469c2.003906-1.238281 4.636719-.617188 5.875 1.386719 1.238281 2.007812.617187 4.636719-1.386719 5.875l-121.429687 79.941406 142.335937-82.175781c2.003906-1.140625 4.550782-.484375 5.75 1.484375 1.203125 1.96875.625 4.535156-1.304687 5.796875l-128.800781 83.300781 147.625-85.230469c2.015624-1.136718 4.570312-.457031 5.757812 1.527344s.574219 4.554688-1.378906 5.792969l-54.613282 33.792969 58.800782-33.953126c2.027344-1.207031 4.644531-.546874 5.851562 1.480469 1.207032 2.023438.542969 4.640625-1.480468 5.847657l-44.621094 27.445312 42.972656-24.808594c2.015625-1.160156 4.589844-.496094 5.789062 1.5 1.199219 1.992188.578126 4.578125-1.394531 5.8125l-110.933593 69.515625 93.636718-54.058593c2.011719-1.09375 4.527344-.402344 5.699219 1.5625 1.171875 1.964843.585937 4.503906-1.328125 5.757812l-25.601562 15.683594 6.238281-3.601563c2.015625-1.21875 4.640625-.574219 5.863281 1.441407 1.21875 2.019531.574219 4.644531-1.441406 5.863281l-108.195313 68.4375 81.699219-47.164063c2.007812-1.175781 4.589844-.527344 5.800781 1.460938 1.210938 1.992187.601563 4.582031-1.363281 5.828125l-112.753906 72.308593 84.542968-48.800781c2-1.082031 4.5-.40625 5.679688 1.539063 1.179688 1.945312.625 4.476562-1.261719 5.75l-80.359375 51.199218 61.050782-35.242187c1.304687-.785156 2.933593-.8125 4.265624-.070313 1.332032.742188 2.167969 2.136719 2.191407 3.660157.027343 1.527343-.765625 2.949219-2.074219 3.730469l-16.039062 9.984374 11.886718-6.828124c2.003906-1.117188 4.535156-.453126 5.726563 1.511718 1.191406 1.960938.617187 4.515625-1.300781 5.777344l-68.941407 43.996094 66.1875-38.203125c1.996094-1.183594 4.574219-.554688 5.800781 1.417969 1.226563 1.96875.652344 4.5625-1.296874 5.828124l-169.933594 113.296876c.84375 1.984374.074218 4.28125-1.789063 5.359374l-46.660156 26.9375c-.648437.375-1.386719.570313-2.136719.566407zm0 0"/><path d="m143.160156 150.75c-1.835937 0-3.464844-1.175781-4.046875-2.917969-.582031-1.742187.019531-3.660156 1.488281-4.761719l40.269532-30.953124-27.101563 15.59375c-1.945312 1.113281-4.421875.535156-5.671875-1.328126-1.246094-1.863281-.839844-4.375.933594-5.746093l27.648438-21.292969-15.5625 8.996094c-1.898438 1.082031-4.308594.558594-5.582032-1.21875-1.277344-1.773438-1.003906-4.226563.632813-5.675782l32.597656-28.640624-18.1875 10.53125c-1.878906 1.0625-4.257813.550781-5.535156-1.1875-1.277344-1.742188-1.054688-4.160157.519531-5.640626l21.613281-19.890624-8.320312 4.804687c-1.902344 1.078125-4.3125.539063-5.578125-1.242187s-.980469-4.234376.664062-5.675782l7.023438-6.050781c-1.492188-.308594-2.703125-1.382813-3.1875-2.824219s-.164063-3.03125.839844-4.175781l7.824218-8.898437c-.503906-.359376-.925781-.832032-1.226562-1.375-1.179688-2.039063-.480469-4.648438 1.5625-5.828126l12.882812-7.449218c1.808594-1.035156 4.101563-.613282 5.421875.996094 1.324219 1.613281 1.285157 3.945312-.089843 5.515624l-2.796876 3.191407 9.472657-5.503907c1.90625-1.097656 4.335937-.566406 5.609375 1.226563 1.273437 1.796875.972656 4.265625-.695313 5.703125l-2.660156 2.277344 2.558594-1.484375c1.878906-1.0625 4.257812-.550781 5.535156 1.1875 1.28125 1.738281 1.058594 4.160156-.519531 5.636719l-21.578125 19.867187 21.921875-12.644531c1.898437-1.085938 4.304687-.558594 5.582031 1.214844 1.273437 1.777343 1 4.226562-.632813 5.679687l-32.5625 28.609375 33.652344-19.445312c1.949219-1.140626 4.445313-.570313 5.703125 1.304687 1.257813 1.871094.839844 4.402344-.957031 5.769531l-27.707031 21.332032 27.707031-15.992188c1.945312-1.09375 4.402344-.503906 5.640625 1.347656 1.238281 1.855469.839844 4.351563-.914063 5.726563l-40.277343 30.953125 41.046875-23.621094c2.039062-1.160156 4.628906-.457031 5.804687 1.574219 1.171875 2.03125.484375 4.628906-1.539062 5.816406l-97.089844 56.003906c-.644531.390625-1.382813.597657-2.136719.605469zm0 0"/></g><path d="m260.546875 391.191406c-1.488281 0-2.867187-.773437-3.640625-2.039062-.777344-1.269532-.835938-2.847656-.15625-4.171875l4.179688-8.191407-11.09375 6.417969c-1.785157 1.011719-4.035157.613281-5.363282-.953125-1.324218-1.566406-1.347656-3.855468-.054687-5.449218l6.945312-8.464844-12.917969 7.460937c-1.8125 1.035157-4.109374.609375-5.425781-1.011719-1.320312-1.617187-1.273437-3.953124.109375-5.519531l13.441406-15.050781-21.890624 12.636719c-1.882813 1.09375-4.285157.59375-5.574219-1.15625-1.292969-1.75-1.058594-4.195313.539062-5.667969l15.191407-14.082031-22.402344 12.9375c-1.882813 1.109375-4.296875.617187-5.597656-1.140625-1.296876-1.757813-1.058594-4.214844.554687-5.6875l25.761719-24.082032-98.515625 56.886719c-1.984375 1.132813-4.507813.503907-5.726563-1.429687s-.699218-4.480469 1.179688-5.78125l45.300781-31.078125-39.984375 23.039062c-2 1.15625-4.554688.515625-5.769531-1.445312-1.214844-1.964844-.648438-4.539063 1.28125-5.808594l41-27.203125-34.566407 19.957031c-2 1.117188-4.523437.457031-5.71875-1.496093-1.199218-1.949219-.640624-4.5 1.261719-5.773438l28.527344-18.433594-22.375 12.957032c-1.992187 1.113281-4.511719.460937-5.710937-1.484376-1.199219-1.941406-.65625-4.488281 1.234374-5.769531l48.808594-32.019531-42.351562 24.449219c-1.996094 1.117187-4.523438.457031-5.71875-1.496094-1.195313-1.953125-.636719-4.5 1.265625-5.773437l27.007812-17.589844-20.847656 12.035156c-1.96875 1.140625-4.488281.535156-5.722656-1.378906-1.234375-1.910156-.753907-4.457032 1.097656-5.78125l64.726563-46.550782-60.808594 35.097657c-1.984375 1.074219-4.457032.417969-5.652344-1.496094-1.191406-1.910156-.691406-4.421875 1.144531-5.730469l13.707031-9.171875-15.359374 8.847657c-1.976563 1.105468-4.472657.472656-5.683594-1.4375-1.214844-1.914063-.722656-4.4375 1.117187-5.757813l26.28125-18.277344-28.859375 16.664063c-1.960937 1.078125-4.421875.457031-5.636718-1.425782-1.214844-1.878906-.769532-4.378906 1.019531-5.722656l37.417969-26.769531-41.101563 23.722656c-1.972656 1.125-4.476563.507813-5.703125-1.398437-1.226562-1.910156-.746094-4.445313 1.09375-5.769532l39.960938-28.527343-43.808594 25.265625c-1.980469 1.121094-4.488282.488281-5.703125-1.433594-1.21875-1.917969-.710938-4.457031 1.144531-5.765625l28.476562-19.628906-31.128906 17.964843c-1.832031 1.046876-4.15625.597657-5.464844-1.054687-1.308593-1.652344-1.214843-4.015625.222657-5.558594l10.726562-11.375-13.695312 7.902344c-1.683594.964844-3.804688.671875-5.164063-.714844-1.359375-1.382812-1.613281-3.507812-.621094-5.175781l2.082032-3.480469c-2.027344.308594-3.988282-.867187-4.667969-2.800781-.679687-1.9375.113281-4.082031 1.886719-5.109375l12.441406-7.183594c1.683594-.964843 3.804688-.675781 5.164062.710938 1.359376 1.382812 1.617188 3.507812.621094 5.175781l-1.773437 2.976562 24.644531-14.222656c1.832031-1.050781 4.152344-.601562 5.460938 1.050782 1.3125 1.65625 1.214843 4.019531-.222657 5.5625l-10.71875 11.363281 98.261719-56.726563c1.988281-1.179687 4.550781-.5625 5.78125 1.390625 1.234375 1.949219.691406 4.53125-1.222656 5.820313l-28.433594 19.625 28.101562-16.214844c1.96875-1.121094 4.472657-.507812 5.703126 1.402344 1.226562 1.90625.742187 4.441406-1.097657 5.765625l-39.96875 28.539062 40.320313-23.28125c1.964844-1.113281 4.460937-.496093 5.683594 1.402344 1.226562 1.898437.757812 4.425781-1.066407 5.757813l-37.410156 26.769531 41.050781-23.707031c1.976563-1.105469 4.472656-.472657 5.683594 1.4375 1.214844 1.914062.722656 4.4375-1.117188 5.757812l-26.324218 18.304688 38.289062-22.101563c1.988282-1.117187 4.503906-.46875 5.707032 1.464844 1.207031 1.9375.675781 4.476562-1.203126 5.769531l-13.652343 9.132812 23.652343-13.65625c1.972657-1.140624 4.492188-.535156 5.726563 1.378907 1.234375 1.910156.75 4.457031-1.097656 5.78125l-64.691407 46.542969 84.957032-49.078126c1.992187-1.066406 4.472656-.398437 5.652344 1.53125 1.183593 1.925782.65625 4.441407-1.199219 5.730469l-27.109375 17.664063 34.253906-19.777344c2-1.199219 4.597656-.566406 5.820312 1.417969 1.226563 1.988281.628907 4.589843-1.34375 5.84375l-48.765624 31.980469 40.0625-23.117188c2.003906-1.140625 4.550781-.480469 5.753906 1.484375 1.199218 1.96875.621094 4.535156-1.308594 5.796875l-28.558594 18.457031 6.023438-3.480469c1.996094-1.160156 4.554687-.519531 5.769531 1.445313 1.214844 1.960937.648437 4.535156-1.28125 5.804687l-41.113281 27.308594 16.121094-9.308594c1.984374-1.179687 4.546874-.5625 5.78125 1.390626 1.234374 1.949218.691406 4.53125-1.226563 5.820312l-45.226563 31.035156 35.746094-20.632812c1.882813-1.113282 4.300782-.617188 5.597656 1.140625 1.300782 1.757812 1.058594 4.210937-.554687 5.683593l-25.769531 24.089844 23.039062-13.320312c1.882813-1.09375 4.285156-.59375 5.578125 1.15625 1.289063 1.753906 1.058594 4.195312-.542969 5.671875l-15.1875 14.0625 12.023438-6.9375c1.8125-1.046875 4.121094-.625 5.441406 1 1.324219 1.628906 1.269532 3.972656-.128906 5.535156l-13.445312 15.054687 10.238281-5.90625c1.785156-1.023437 4.046875-.628906 5.375.941407 1.332031 1.570312 1.355469 3.863281.050781 5.457031l-6.953125 8.457031 3.261719-1.867187c1.636718-.980469 3.726562-.75 5.113281.558594 1.386719 1.308593 1.738281 3.378906.859375 5.074218l-4.269531 8.300782c2.089843-.753907 4.40625.21875 5.328125 2.238281.925781 2.015625.148437 4.40625-1.785156 5.492187l-11.707032 6.757813c-.664062.378906-1.414062.570312-2.175781.554687zm0 0" fill="#ffd988"/><path d="m170.339844 200.039062c-1.808594 0-3.417969-1.140624-4.023438-2.847656-.601562-1.703125-.0625-3.601562 1.34375-4.738281l8.449219-6.828125c-1.746094 0-3.3125-1.0625-3.960937-2.679688-.648438-1.621093-.246094-3.472656 1.015624-4.675781l11.949219-11.375c-1.734375.765625-3.761719.296875-4.984375-1.152343-1.21875-1.445313-1.34375-3.523438-.300781-5.101563l11.949219-18.21875c-1.574219-.554687-2.679688-1.976563-2.832032-3.636719-.152343-1.660156.675782-3.253906 2.121094-4.085937l10.15625-5.855469c1.710938-.984375 3.875-.667969 5.230469.765625 1.355469 1.4375 1.550781 3.617187.46875 5.269531l-10.109375 15.445313 15.144531-8.730469c1.886719-1.1875 4.367188-.726562 5.699219 1.0625 1.328125 1.789062 1.058594 4.300781-.621094 5.761719l-11.886718 11.28125 11.390624-6.570313c1.925782-1.066406 4.34375-.492187 5.589844 1.320313 1.242188 1.8125.902344 4.277343-.785156 5.6875l-5.632812 4.546875 4.429687-2.558594c2.039063-1.160156 4.632813-.457031 5.804687 1.574219 1.171876 2.03125.484376 4.628906-1.539062 5.816406l-51.933594 29.976563c-.648437.367187-1.386718.554687-2.132812.546874zm0 0" fill="#ffd988"/><path d="m270.15625 295.371094c5.304688-19.523438 29.328125-35.292969 40.242188-52.25 25.4375-39.535156-45.910157-25.597656-67.019532-42.289063-6.980468-17.792969-15.890625-67.226562-37.113281-70.828125-23.039063-3.882812-29.464844 34.605469-35.148437 48.855469-8.292969 20.769531-7.238282 25.890625-28.289063 30.898437-12.800781 3.039063-34.457031 1.550782-45.566406 8.804688-27.308594 17.84375 13.457031 45.929688 26.230469 63.363281 11.476562 15.65625 11.820312 22.183594 9.234374 41.519531-1.851562 13.851563-11.035156 40.851563-7.28125 54.511719 6.828126 24.875 31.191407 5.394531 44.476563-3.242187 17.621094-11.460938 23.355469-20.546875 41.140625-12.800782 14.265625 6.203126 26.570312 22.878907 41.597656 26.882813 23.136719 6.167969 26.105469-10.171875 24.5-28.800781-1.621094-18.875-12.058594-46.046875-7.003906-64.625zm-7.792969 88.074218c-11.261719 4.871094-42.136719-34.824218-62.234375-32.214843-19.566406 2.5625-32.835937 27.964843-51.300781 30.449219-23.039063 3.089843.851563-62.765626-1.253906-80.035157-2.867188-23.332031-27.863281-38.179687-39.878907-57.710937-3.914062-6.367188-13.976562-11.828125-7.960937-21.625 1.410156-2.277344 14.21875-2.21875 16.761719-3.140625 13.371094-4.8125 30.0625-2.4375 43.109375-8.097657 23.507812-10.195312 21.53125-39.542968 33.730469-59.355468 4.429687-7.195313 1.554687-16.847656 12.433593-10.804688 2.765625 1.542969 5.589844 14.003906 6.734375 16.871094l18.628906 46.667969c.050782.136719.222657.1875.316407.289062.09375.105469 0 .148438.050781.207031.050781.058594.375.222657.542969.347657 17.921875 13.519531 77.613281 6.632812 70.394531 34.527343-6.09375 23.542969-41.292969 36.496094-45.902344 61.816407-2.484375 13.867187 20.734375 75.355469 5.828125 81.808593zm0 0" fill="#262626"/><path d="m379.152344 139.777344c-6.417969-6-11.402344-13.367188-14.585938-21.558594 1.316406-2.003906 1.035156-4.171875-1.886718-4.570312-5.792969-14.722657-9.632813-31.371094-14.1875-43.410157-6.214844-16.4375-11.785157-52.054687-26.328126-63.890625-11.6875-9.546875-30.496093-2.746094-43.441406-.589844l-69.554687 11.625c-2.417969-.578124-4.910157-.78125-7.390625-.597656-18.371094 1.167969-22.914063 18.347656-28.304688 32.597656-11.75 31.078126-20.148437 68.941407-36.898437 97.5625-13.542969 23.148438-55.050781 22.234376-79.726563 27.117188-16.351562 3.234375-48.273437 3.140625-55.628906 22.492188-7.160156 18.773437 19.164062 42.035156 28.859375 54.613281 16.757813 21.734375 44.375 46.695312 55.464844 71.921875 10.113281 22.980468-2.609375 60.304687-5.597657 83.882812-2.773437 21.914063-11.886718 50.898438-9.011718 72.976563 2.238281 17.175781 10.617187 22.859375 21.976562 21.9375.734375.566406 1.632813.878906 2.558594.898437h.257812c2.871094.210938 5.679688-.921875 7.601563-3.066406l88.550781-14.804688c6.417969-.441406 12.664063-2.273437 18.304688-5.367187 10.023437-5.617187 19.570312-12.039063 28.550781-19.207031 29.609375 22.867187 60.3125 56.097656 84.199219 38.9375 25.820312-4.269532 51.675781-8.339844 77.449218-12.871094 17.917969-3.148438 32.683594-4.964844 35.574219-26.210938 2.9375-21.488281-6.332031-51.203124-9.019531-72.449218-2.894531-22.894532-16.425781-62.550782-5.53125-84.796875l45.535156-59.042969c10.410156-13.5 38.222656-37.253906 39.945313-55.816406 3.804687-41.09375-105.351563-29.507813-127.734375-48.3125zm-195.808594 342.519531-52.90625 8.839844c-4.207031.699219-8.472656 1.320312-12.722656 1.996093 28.246094-15.242187 60.671875-45.175781 70.996094-49.691406 13.773437-6.023437 29.261718 1.621094 45.226562 13.277344-18.300781 12.726562-29.046875 21.976562-50.59375 25.578125zm88.6875-12.65625c-16.09375-11.09375-37.214844-31.234375-55.328125-37.972656-42.148437-15.703125-74.011719 47.613281-110.617187 57.394531-31.925782 8.53125-19.859376-33.84375-17.691407-50.996094 3.984375-31.429687 9.703125-63.144531 11.996094-94.71875 2.785156-38.460937-41.71875-75.164062-63.648437-103.605468-5.273438-6.824219-16.972657-17.066407-19.582032-25.394532-9.054687-28.851562 7.074219-22.800781 20.957032-27.828125 26.394531-9.53125 56.832031-8.652343 83.78125-16.570312 37.449218-11 44.867187-70.28125 57.265624-103.058594 2.558594-6.824219 6.042969-26.253906 11.75-31.058594 9.660157-8.140625 14.90625-8.082031 18.347657-4.726562.425781.449219.851562.945312 1.253906 1.441406 3.140625 4.324219 4.648437 11.585937 7.414063 16.332031 3.816406 6.65625 7.164062 13.570313 10.019531 20.691406l.222656.71875c-1.289063 1.5625-1.316406 3.191407 1.097656 3.566407 3.074219 10.179687 5.453125 19.394531 7.441407 24.660156 6.488281 17.152344 11.90625 51.703125 26.863281 64.28125 7.671875 5.460937 16.542969 8.996094 25.867187 10.308594 24.625 6.359375 52.1875 5.121093 75.945313 13.65625 15.734375 5.699219 29.226562 5.800781 20.617187 30.957031 0 .144531-.136718.289062-.1875.433594-.519531 1.101562-.914062 2.136718-1.554687 3.304687-1.089844 1.988281-2.335938 3.933594-3.53125 5.886719-6.46875 9.132812-16.375 18.449219-21.957031 25.695312l-50.996094 66.117188c-.152344.195312-.144532.339844-.265625.527344-.171875.175781-.332031.367187-.476563.570312-1.15625 2.449219-2.015625 5.027344-2.558594 7.683594-.253906.503906-.367187 1.066406-.324218 1.628906-.34375 1.863282-.566406 3.746094-.667969 5.640625-.074219.585938-.238281 1.132813-.289063 1.707031-1.996093 24.8125 6.9375 54.84375 10.050782 79.460938.855468 6.707031 3.570312 18.03125 5.589844 30.183594-1.304688 1.707031-1.363282 3.566406.367187 4.417968.300781 5.070313.46875 10.113282.332031 15.054688.148438 3.65625.621094 7.289062 1.410156 10.863281-.277343 3.769531-1.109374 7.476563-2.464843 11.007813-4.238281 2.808594-9.292969 4.125-14.363281 3.738281-7.40625.21875-26.035157-17.84375-32.085938-22zm188.671875-231.578125-50.996094 66.117188c-.074219.101562 0 .160156-.082031.253906-.085938.09375-.324219.273437-.402344.4375-7.859375 15.871094-.855468 37.316406 1.289063 54.082031.808593 6.382813 1.917969 13.007813 3.105469 19.730469l-48.332032 6.042968c-5.855468.730469-10.367187 7.609376-1.765625 6.535157l51.199219-6.398438c5.164062 22.585938 7.777344 45.683594 7.789062 68.855469-1.613281 29.820312-15.707031 26.902344-40.90625 31.085938l-47.457031 7.867187c-.921875.152344-3.164062.769531-5.679687 1.382813 7.910156-10.660157 5.972656-28.210938 3.070312-43.734376l57.761719-7.191406c6.390625-.804687 9.925781-8.917968 1.417969-7.859375l-60.628906 7.550781c-1.007813-5.070312-1.949219-9.746093-2.433594-13.59375-3.242188-25.601562-6.484375-51.199218-9.71875-76.800781-.882813-7.410156-.480469-14.914062 1.195312-22.1875l53.09375-6.671875c6.339844-.792968 9.949219-8.816406 1.441406-7.75l-52.402343 6.589844c.851562-2.558594 1.78125-5.058594 2.875-7.5625l44.96875-58.316406c1.453125-1.882813 3.253906-3.976563 5.222656-6.203125l40.160156-5.035157c5.121094-.640624 10.957031-5.894531 2.234375-4.804687l-37.828125 4.738281c11.042969-12.210937 24.808594-27.496094 25.675781-40.730468 2.886719-43.777344-101.101562-26.855469-130.703124-51.378907-2.121094-2.183593-3.988282-4.597656-5.574219-7.195312-12.796875-20.898438-19.625-49.074219-27.867188-73.1875l46.335938-5.753907c5.851562-.734374 10.367187-7.617187 1.765625-6.542968l-50.234375 6.269531c-.257813-.707031-.503907-1.464844-.769531-2.164063-3.242188-11.269531-7.433594-22.238281-12.535157-32.796874-2.011719-4.222657-4.953125-7.933594-8.601562-10.863282h.296875c17.632812-2.113281 35.21875-5.878906 52.730468-8.804687 21.75-3.679688 34.269532-9.804688 47.503907 10.675781 15.855469 24.601562 23.039062 60.925781 33.40625 88.320312.488281 1.277344.898437 2.421876 1.347656 3.632813l-37.773437 4.71875c-6.445313.8125-9.875 9.0625-1.382813 7.996094l41.949219-5.238281c3.332031 13.601562 13.394531 24.550781 26.664062 29.011718 27.804688 10.832032 60.945313 8.535156 89.371094 17.683594 43.726562 14.128906 7.886719 46.25-9.796875 69.1875zm0 0" fill="#262626"/></svg>